<?xml version="1.0" encoding="iso-8859-1"?>
<!-- Generator: Adobe Illustrator 19.0.0, SVG Export Plug-In . SVG Version: 6.00 Build 0)  -->
<svg version="1.1" id="Capa_1" xmlns="http://www.w3.org/2000/svg" xmlns:xlink="http://www.w3.org/1999/xlink" x="0px" y="0px"
	 viewBox="0 0 483.328 483.328" style="enable-background:new 0 0 483.328 483.328;" xml:space="preserve">
<g>
	<g>
		<path d="M355.072,65.024h-53.76v-5.12C301.312,26.624,274.176,0,241.408,0s-59.904,27.136-59.904,59.904v5.12h-53.76
			c-24.064,0-43.52,19.456-43.52,43.52v331.264c0,24.064,19.456,43.52,43.52,43.52h227.84c24.064,0,43.52-19.456,43.52-43.52
			V108.544C398.592,84.48,379.136,65.024,355.072,65.024z M241.408,25.6c18.944,0,34.304,15.36,34.304,34.304v28.16h-68.608v-28.16
			C206.592,40.96,222.464,25.6,241.408,25.6z M328.96,420.864H153.856v-25.6H328.96V420.864z M326.4,361.472H156.416
			c-3.072,0-5.12-2.048-5.12-5.12v-15.36c0-13.824,7.68-26.624,19.968-33.28l33.28-17.92c1.536-1.024,2.56-2.56,2.56-4.608v-10.752
			c-5.632-7.68-9.728-16.384-12.288-25.6c-4.096-3.584-6.144-8.704-6.144-14.336v-14.848c0-4.096,1.536-8.192,3.584-11.264v-9.216
			c-1.024-9.728,2.56-19.968,8.704-27.648c8.704-9.728,22.016-14.848,40.448-14.848s31.744,5.12,40.448,14.848
			c6.656,7.68,9.728,17.408,8.704,27.648v9.216c2.56,3.072,3.584,7.168,3.584,11.264v14.848c0,6.656-3.584,13.312-9.728,16.896
			c-2.56,7.168-6.144,14.336-10.752,20.992l-1.536,2.048v10.752c0,2.048,1.024,3.584,2.56,4.608l35.328,17.92
			c12.8,6.656,20.992,19.456,20.992,34.304v14.336C331.52,359.424,328.96,361.472,326.4,361.472z"/>
	</g>
</g>
<g>
</g>
<g>
</g>
<g>
</g>
<g>
</g>
<g>
</g>
<g>
</g>
<g>
</g>
<g>
</g>
<g>
</g>
<g>
</g>
<g>
</g>
<g>
</g>
<g>
</g>
<g>
</g>
<g>
</g>
</svg>
