<svg xmlns="http://www.w3.org/2000/svg" width="26.953" height="30" viewBox="0 0 26.953 30"><g transform="translate(-26)"><path d="M52.367,7.031H41.234V.586A.586.586,0,0,0,40.648,0H26.586A.586.586,0,0,0,26,.586V29.414a.586.586,0,0,0,.586.586H52.367a.586.586,0,0,0,.586-.586V7.617A.586.586,0,0,0,52.367,7.031ZM41.234,8.2H51.781V22.969H41.234ZM31.859,28.828V24.141h3.516v4.688Zm4.1-5.859H31.273a.586.586,0,0,0-.586.586v5.273H27.172V1.172H40.063V28.828H36.547V23.555A.586.586,0,0,0,35.961,22.969Zm5.273,5.859V24.141H51.781v4.688Z"/><path d="M136.585,42.345h1.172a.586.586,0,0,0,.586-.586V40.587a.586.586,0,0,0-.586-.586h-1.172a.586.586,0,0,0-.586.586v1.172A.586.586,0,0,0,136.585,42.345Z" transform="translate(-103.554 -37.657)"/><path d="M136.585,112.345h1.172a.586.586,0,0,0,.586-.586v-1.172a.586.586,0,0,0-.586-.586h-1.172a.586.586,0,0,0-.586.586v1.172A.586.586,0,0,0,136.585,112.345Z" transform="translate(-103.554 -103.556)"/><path d="M136.585,182.345h1.172a.586.586,0,0,0,.586-.586v-1.172a.586.586,0,0,0-.586-.586h-1.172a.586.586,0,0,0-.586.586v1.172A.586.586,0,0,0,136.585,182.345Z" transform="translate(-103.554 -169.454)"/><path d="M136.585,252.344h1.172a.586.586,0,0,0,.586-.586v-1.172a.586.586,0,0,0-.586-.586h-1.172a.586.586,0,0,0-.586.586v1.172A.586.586,0,0,0,136.585,252.344Z" transform="translate(-103.554 -235.352)"/><path d="M136.585,322.344h1.172a.586.586,0,0,0,.586-.586v-1.172a.586.586,0,0,0-.586-.586h-1.172a.586.586,0,0,0-.586.586v1.172A.586.586,0,0,0,136.585,322.344Z" transform="translate(-103.554 -301.25)"/><path d="M66.587,42.345h1.172a.586.586,0,0,0,.586-.586V40.587A.586.586,0,0,0,67.759,40H66.587a.586.586,0,0,0-.586.586v1.172A.586.586,0,0,0,66.587,42.345Z" transform="translate(-37.657 -37.657)"/><path d="M66.587,112.345h1.172a.586.586,0,0,0,.586-.586v-1.172a.586.586,0,0,0-.586-.586H66.587a.586.586,0,0,0-.586.586v1.172A.586.586,0,0,0,66.587,112.345Z" transform="translate(-37.657 -103.556)"/><path d="M66.587,182.345h1.172a.586.586,0,0,0,.586-.586v-1.172a.586.586,0,0,0-.586-.586H66.587a.586.586,0,0,0-.586.586v1.172A.586.586,0,0,0,66.587,182.345Z" transform="translate(-37.657 -169.454)"/><path d="M66.587,252.344h1.172a.586.586,0,0,0,.586-.586v-1.172a.586.586,0,0,0-.586-.586H66.587a.586.586,0,0,0-.586.586v1.172A.586.586,0,0,0,66.587,252.344Z" transform="translate(-37.657 -235.352)"/><path d="M66.587,322.344h1.172a.586.586,0,0,0,.586-.586v-1.172a.586.586,0,0,0-.586-.586H66.587a.586.586,0,0,0-.586.586v1.172A.586.586,0,0,0,66.587,322.344Z" transform="translate(-37.657 -301.25)"/><path d="M207.759,40h-1.172a.586.586,0,0,0-.586.586v1.172a.586.586,0,0,0,.586.586h1.172a.586.586,0,0,0,.586-.586V40.587A.586.586,0,0,0,207.759,40Z" transform="translate(-169.454 -37.657)"/><path d="M207.759,110h-1.172a.586.586,0,0,0-.586.586v1.172a.586.586,0,0,0,.586.586h1.172a.586.586,0,0,0,.586-.586v-1.172A.586.586,0,0,0,207.759,110Z" transform="translate(-169.454 -103.555)"/><path d="M207.759,180h-1.172a.586.586,0,0,0-.586.586v1.172a.586.586,0,0,0,.586.586h1.172a.586.586,0,0,0,.586-.586v-1.172A.586.586,0,0,0,207.759,180Z" transform="translate(-169.454 -169.453)"/><path d="M207.759,250h-1.172a.586.586,0,0,0-.586.586v1.172a.586.586,0,0,0,.586.586h1.172a.586.586,0,0,0,.586-.586v-1.172A.586.586,0,0,0,207.759,250Z" transform="translate(-169.454 -235.352)"/><path d="M207.759,320h-1.172a.586.586,0,0,0-.586.586v1.172a.586.586,0,0,0,.586.586h1.172a.586.586,0,0,0,.586-.586v-1.172A.586.586,0,0,0,207.759,320Z" transform="translate(-169.454 -301.25)"/><path d="M392.758,180h-1.172a.586.586,0,0,0-.586.586v1.172a.586.586,0,0,0,.586.586h1.172a.586.586,0,0,0,.586-.586v-1.172A.586.586,0,0,0,392.758,180Z" transform="translate(-343.613 -169.453)"/><path d="M392.758,250h-1.172a.586.586,0,0,0-.586.586v1.172a.586.586,0,0,0,.586.586h1.172a.586.586,0,0,0,.586-.586v-1.172A.586.586,0,0,0,392.758,250Z" transform="translate(-343.613 -235.352)"/><path d="M392.758,320h-1.172a.586.586,0,0,0-.586.586v1.172a.586.586,0,0,0,.586.586h1.172a.586.586,0,0,0,.586-.586v-1.172A.586.586,0,0,0,392.758,320Z" transform="translate(-343.613 -301.25)"/><path d="M322.76,180h-1.172a.586.586,0,0,0-.586.586v1.172a.586.586,0,0,0,.586.586h1.172a.586.586,0,0,0,.586-.586v-1.172A.586.586,0,0,0,322.76,180Z" transform="translate(-277.717 -169.453)"/><path d="M322.76,250h-1.172a.586.586,0,0,0-.586.586v1.172a.586.586,0,0,0,.586.586h1.172a.586.586,0,0,0,.586-.586v-1.172A.586.586,0,0,0,322.76,250Z" transform="translate(-277.717 -235.352)"/><path d="M322.76,320h-1.172a.586.586,0,0,0-.586.586v1.172a.586.586,0,0,0,.586.586h1.172a.586.586,0,0,0,.586-.586v-1.172A.586.586,0,0,0,322.76,320Z" transform="translate(-277.717 -301.25)"/></g></svg>