<svg xmlns="http://www.w3.org/2000/svg" width="31.774" height="31.52" viewBox="0 0 31.774 31.52"><g transform="translate(-2 -2.48)"><path d="M33.245,10.169h-.53V8.051a.53.53,0,0,0-.6-.524l-.461.058V5.4a.522.522,0,0,0-.207-.418.538.538,0,0,0-.455-.1L11.569,9.873l1.975-3.421a2.683,2.683,0,0,0,.35-1.319A2.648,2.648,0,0,0,8.953,3.8L2.36,15.232A2.634,2.634,0,0,0,2,16.561v6.551a2.608,2.608,0,0,0,.1.726L3.79,29.763h-.2a.53.53,0,0,0-.53.53V33.47a.53.53,0,0,0,.53.53H15.239a.53.53,0,0,0,.53-.53V30.293a.53.53,0,0,0-.53-.53V28.434a3.707,3.707,0,0,0-1.086-2.627L13.338,25H33.245a.53.53,0,0,0,.53-.53V10.7A.53.53,0,0,0,33.245,10.169ZM31.656,8.655v1.515H20.148ZM30.6,6.086V7.728L17.458,9.454ZM14.71,32.941H4.118V30.823H14.71Zm-3.135-8.272a.484.484,0,0,0,.117.169l-.005.005L13.4,26.56a2.619,2.619,0,0,1,.778,1.875v1.329H4.891L3.117,23.552a1.757,1.757,0,0,1-.058-.44V16.561a1.544,1.544,0,0,1,.217-.794l6.6-11.433a1.587,1.587,0,0,1,2.748,1.589l-2.452,4.247H8.884a.53.53,0,0,0-.53.53V21.82a.538.538,0,0,0,.328.493.53.53,0,0,0,.583-.127l4.671-4.83a1.592,1.592,0,0,1,2.685.821c.011.106.021.212.026.3a1.623,1.623,0,0,1-.466,1.123l-4.5,4.5a.53.53,0,0,0-.111.577Zm21.141-.731H13.338L16.7,20.581a5.243,5.243,0,0,0,4.364,2.3,5.3,5.3,0,1,0-5.052-6.869,2.665,2.665,0,0,0-2.833.6l-3.765,3.9V11.228h23.3Zm-15.05-5.931a2.662,2.662,0,0,0-.72-1.387,4.249,4.249,0,1,1,.455,3.066,2.848,2.848,0,0,0,.307-1.229C17.7,18.314,17.686,18.176,17.665,18.007Z"/><path d="M36.589,29.766a.53.53,0,0,1-.53-.53H35a1.589,1.589,0,0,0,1.059,1.491v.627h1.059v-.627a1.585,1.585,0,0,0-.53-3.08.53.53,0,1,1,.53-.53h1.059a1.589,1.589,0,0,0-1.059-1.491V25H36.059v.627a1.585,1.585,0,0,0,.53,3.08.53.53,0,0,1,0,1.059Z" transform="translate(-15.524 -10.594)"/><path d="M19.059,22.581a2.126,2.126,0,0,0,1.521-1.521h1.126V20H20.118a.53.53,0,0,0-.53.53,1.059,1.059,0,0,1-1.059,1.059.53.53,0,0,0-.53.53v1.589h1.059Z" transform="translate(-7.527 -8.242)"/><path d="M53.648,23.581v1.126h1.059V23.118a.53.53,0,0,0-.53-.53,1.059,1.059,0,0,1-1.059-1.059.53.53,0,0,0-.53-.53H51v1.059h1.126A2.126,2.126,0,0,0,53.648,23.581Z" transform="translate(-23.051 -8.712)"/><path d="M53.118,37.177a1.059,1.059,0,0,1,1.059-1.059.53.53,0,0,0,.53-.53V34H53.648v1.126a2.126,2.126,0,0,0-1.521,1.521H51v1.059h1.589A.53.53,0,0,0,53.118,37.177Z" transform="translate(-23.051 -14.828)"/></g></svg>