<svg xmlns="http://www.w3.org/2000/svg" width="30" height="34.133" viewBox="0 0 30 34.133"><g transform="translate(-31)"><path d="M49.5,34.133h-17a1.5,1.5,0,0,1-1.5-1.5V7.613a1.5,1.5,0,0,1,1.5-1.5h2.874a.5.5,0,0,1,0,1H32.5a.5.5,0,0,0-.5.5v25.02a.5.5,0,0,0,.5.5h17a.5.5,0,0,0,.5-.5V21H38.5A1.5,1.5,0,0,1,37,19.5V1.5A1.5,1.5,0,0,1,38.5,0h15A1.5,1.5,0,0,1,55,1.5v5a.5.5,0,0,1-1,0v-5a.5.5,0,0,0-.5-.5h-15a.5.5,0,0,0-.5.5v18a.5.5,0,0,0,.5.5h15a.5.5,0,0,0,.5-.5V8.5a.5.5,0,0,1,.5-.5h3a.5.5,0,0,1,0,1H55v2h2.5a.5.5,0,0,1,0,1H55v2h2.5a.5.5,0,0,1,0,1H55v2h2.5a.5.5,0,0,1,0,1H55v1.5a1.494,1.494,0,0,1-.086.5H57.5a.5.5,0,0,1,0,1H51v2h6.5a.5.5,0,0,1,0,1H51v3.133h8.5a.5.5,0,0,0,.5-.5V4.613a.5.5,0,0,0-.5-.5h-3a.5.5,0,1,1,0-1h3a1.5,1.5,0,0,1,1.5,1.5v22.02a1.5,1.5,0,0,1-1.5,1.5H51v3h5.5a.5.5,0,0,0,.5-.5v-1a.5.5,0,0,1,1,0v1a1.5,1.5,0,0,1-1.5,1.5H51v.5A1.5,1.5,0,0,1,49.5,34.133ZM52.5,19h-13a.5.5,0,0,1-.5-.5V16.763c0-2.569,1.7-3.157,2.939-3.586,1.024-.354,1.6-.593,1.707-1.363a4.182,4.182,0,0,1-1.829-3.456V6.3a4.183,4.183,0,0,1,8.365,0V8.358a4.181,4.181,0,0,1-1.829,3.456c.1.77.684,1.009,1.707,1.363C51.3,13.606,53,14.194,53,16.763V18.5A.5.5,0,0,1,52.5,19ZM40,18H52V16.763c0-1.857-1.05-2.221-2.266-2.641-.9-.311-1.981-.686-2.3-1.834a4.187,4.187,0,0,1-2.863,0c-.322,1.148-1.4,1.523-2.3,1.834C41.05,14.543,40,14.906,40,16.763ZM46,3.113A3.186,3.186,0,0,0,42.817,6.3V8.358a3.183,3.183,0,0,0,6.365,0V6.3A3.186,3.186,0,0,0,46,3.113Z"/></g></svg>