<svg xmlns="http://www.w3.org/2000/svg" width="27.5" height="27.966" viewBox="0 0 27.5 27.966"><g transform="translate(-3 -2)"><path d="M42,6h1.864v.932H42Z" transform="translate(-20.822 -2.136)"/><path d="M42,10h1.864v.932H42Z" transform="translate(-20.822 -4.271)"/><path d="M42,14h1.864v.932H42Z" transform="translate(-20.822 -6.407)"/><path d="M42,18h7.458v.932H42Z" transform="translate(-20.822 -8.542)"/><path d="M52,22h2.8v.932H52Z" transform="translate(-26.161 -10.678)"/><path d="M52,26h2.8v.932H52Z" transform="translate(-26.161 -12.814)"/><path d="M52,30h2.8v.932H52Z" transform="translate(-26.161 -14.949)"/><path d="M52,34h2.8v.932H52Z" transform="translate(-26.161 -17.085)"/><path d="M34,34h2.8v.932H34Z" transform="translate(-16.551 -17.085)"/><path d="M34,38h2.8v.932H34Z" transform="translate(-16.551 -19.22)"/><path d="M52,38h2.8v.932H52Z" transform="translate(-26.161 -19.22)"/><path d="M43,42h6.992v.932H43Z" transform="translate(-21.356 -21.356)"/><path d="M43,46h6.992v.932H43Z" transform="translate(-21.356 -23.492)"/><path d="M43,50h6.992v.932H43Z" transform="translate(-21.356 -25.627)"/><path d="M21.661,31h-.932c0,.116-.5.466-1.4.466s-1.4-.35-1.4-.466H17c0,.8,1,1.4,2.331,1.4S21.661,31.8,21.661,31Z" transform="translate(-7.475 -15.483)"/><path d="M10,52h2.8v.932H10Z" transform="translate(-3.737 -26.695)"/><path d="M43.864,28.525a.932.932,0,0,1-.932-.932H42a1.864,1.864,0,0,0,1.4,1.8v1h.932v-1a1.861,1.861,0,0,0-.466-3.663A.932.932,0,1,1,44.8,24.8h.932a1.864,1.864,0,0,0-1.4-1.8V22H43.4v1a1.861,1.861,0,0,0,.466,3.663.932.932,0,1,1,0,1.864Z" transform="translate(-20.822 -10.678)"/><path d="M30.365,7.752l-5.6-5.617A.47.47,0,0,0,24.436,2H11.856A7.935,7.935,0,0,0,3.932,9.924a.466.466,0,0,0,.466.466h.014a2.308,2.308,0,0,0,1.459,3.687,6.067,6.067,0,0,0,3.654,4.7v.993L5,20.42a2.341,2.341,0,0,0-2,2.307V29.5a.466.466,0,0,0,.466.466h16.78a.466.466,0,0,0,.466-.466V28.1H29.1a1.4,1.4,0,0,0,1.4-1.4V8.083a.461.461,0,0,0-.135-.331ZM24.907,3.6l3.981,3.994H25.373a.466.466,0,0,1-.466-.466ZM5.8,13.1a1.4,1.4,0,0,1-.527-2.3,1.445,1.445,0,0,1,.527-.326ZM4.878,9.458a6.992,6.992,0,0,1,13.955,0H17.6L14.457,7.216a.458.458,0,0,0-.4-.07L6.2,9.458Zm13.969,2.331a1.4,1.4,0,0,1-.932,1.31V10.474a1.482,1.482,0,0,1,.522.322A1.4,1.4,0,0,1,18.847,11.788Zm-5.593-.932a.466.466,0,0,0-.466.466v.466H10.924v-.466a.466.466,0,0,0-.466-.466H7.852l-.7-.708L14.1,8.106l2.633,1.878-.872.872Zm2.331.932v.932H13.72v-.932Zm-5.593,0v.932H8.127v-.932Zm-3.263,1.4V11.047l.466.466v1.673a.466.466,0,0,0,.466.466h2.8a.466.466,0,0,0,.466-.466V12.72h1.864v.466a.466.466,0,0,0,.466.466h2.8a.466.466,0,0,0,.466-.466V11.513l.466-.466v2.139a5.127,5.127,0,1,1-10.254,0Zm3.207,7.919,1.049,2.1-2.1-.527Zm1.454,7.928H3.932V22.728a1.408,1.408,0,0,1,1.2-1.384l3.9-.555L7.74,22.718a.466.466,0,0,0,.275.708l3.375.844Zm-.932-8.968v-.988a5.91,5.91,0,0,0,2.8,0v.988l-1.4,2.8Zm3.319,1.039,1.053,1.575-2.1.527Zm6,7.928H12.322V24.27l3.375-.844a.466.466,0,0,0,.275-.708l-1.286-1.93,3.9.555a1.408,1.408,0,0,1,1.2,1.384ZM29.568,26.7a.466.466,0,0,1-.466.466h-8.39V22.728a2.341,2.341,0,0,0-2-2.307l-4.526-.648V18.78a6.087,6.087,0,0,0,3.263-3.267v.471h2.8v-.932H17.617a5.586,5.586,0,0,0,.224-.974A2.308,2.308,0,0,0,19.3,10.39h.014a.466.466,0,0,0,.466-.466,7.927,7.927,0,0,0-4.2-6.992h8.4V7.127a1.4,1.4,0,0,0,1.4,1.4h4.195Z"/></g></svg>