<svg xmlns="http://www.w3.org/2000/svg" width="17.688" height="17.688" viewBox="0 0 17.688 17.688"><defs><style>.a{fill:#3a3a3a;}</style></defs><g transform="translate(0)"><path class="a" d="M12.712,17.688a4.928,4.928,0,0,1-1.691-.3,18.028,18.028,0,0,1-6.547-4.173A18.027,18.027,0,0,1,.3,6.666a4.892,4.892,0,0,1-.25-2.4A5.017,5.017,0,0,1,2.631.589,4.925,4.925,0,0,1,4.989,0a.553.553,0,0,1,.54.437L6.4,4.485a.553.553,0,0,1-.15.507L4.765,6.475a14.549,14.549,0,0,0,6.448,6.448L12.7,11.44a.553.553,0,0,1,.507-.15l4.049.868a.553.553,0,0,1,.437.54,4.925,4.925,0,0,1-.589,2.358,5.017,5.017,0,0,1-3.672,2.578,4.917,4.917,0,0,1-.714.052ZM4.548,1.13A3.873,3.873,0,0,0,1.341,6.289,16.765,16.765,0,0,0,11.4,16.347a3.873,3.873,0,0,0,5.159-3.206l-3.294-.706-1.548,1.548a.553.553,0,0,1-.626.109A15.651,15.651,0,0,1,3.6,6.6a.553.553,0,0,1,.109-.626L5.254,4.423Z" transform="translate(0)"/></g></svg>