<svg xmlns="http://www.w3.org/2000/svg" width="34.133" height="34.133" viewBox="0 0 34.133 34.133"><g transform="translate(-1 -1)"><path d="M34.583,4.3a.55.55,0,0,0,.551-.551v-2.2A.55.55,0,0,0,34.583,1H8.157a.55.55,0,0,0-.551.551v2.2a.55.55,0,0,0,.551.551h.551v9.1a4.947,4.947,0,0,0-1.084,8.793c-.009.092-.017.184-.017.277H5.955A4.961,4.961,0,0,0,1,27.426v7.157a.55.55,0,0,0,.551.551H16.415a.55.55,0,0,0,.551-.551V30.445a2.736,2.736,0,0,1,.807-1.947l7.68-7.679h9.131a.55.55,0,0,0,.551-.551v-2.2a.55.55,0,0,0-.551-.551h-.551V4.3ZM8.708,2.1H34.032V3.2H8.708Zm1.652,12.112a3.822,3.822,0,0,1,.849.1,4.983,4.983,0,0,1-3.6,1.554H7.2A3.849,3.849,0,0,1,10.359,14.213Zm10.232,4.4-1.1,1.1H15.025a4.89,4.89,0,0,0,.257-1.1ZM24.815,19.9l-.142.141L22.7,18.067l.142-.142A1.4,1.4,0,0,1,24.815,19.9ZM10.359,23.021a4.918,4.918,0,0,0,1.624-.279,1.646,1.646,0,0,1-3.248,0A4.918,4.918,0,0,0,10.359,23.021Zm2.736-.827a5,5,0,0,0,1.382-1.375H18.39l-.845.845a2.738,2.738,0,0,1-1.947.807H13.112c0-.092-.008-.185-.017-.277Zm-.807-7.458a3.878,3.878,0,0,1,1.5,1.581,5,5,0,0,1-2.083-.964A6.061,6.061,0,0,0,12.288,14.736ZM6.505,18.067a3.83,3.83,0,0,1,.162-1.1h.939a6.069,6.069,0,0,0,3.2-.927,6.108,6.108,0,0,0,3.356,1.447,3.852,3.852,0,1,1-7.659.581ZM16.994,27.72a3.829,3.829,0,0,0-1.129,2.725v3.587H6.505V27.976H5.4v6.056H2.1V27.426a3.858,3.858,0,0,1,3.854-3.854H7.84a2.747,2.747,0,0,0,5.039,0H15.6a3.831,3.831,0,0,0,2.725-1.129l3.6-3.6,1.974,1.974Zm17.039-8H26.182a2.03,2.03,0,0,0,.113-1.1h7.737Zm-1.1-2.2H25.9a2.5,2.5,0,0,0-3.834-.369l-.37.369H15.281a4.936,4.936,0,0,0-5.473-4.372V4.3H32.931Z"/><path d="M24.854,16.708A3.854,3.854,0,1,0,21,12.854,3.858,3.858,0,0,0,24.854,16.708Zm0-1.1a2.736,2.736,0,0,1-2.02-.9l2.173-1.3h2.545A2.758,2.758,0,0,1,24.854,15.606Zm2.7-3.3H25.4V10.157A2.761,2.761,0,0,1,27.551,12.3ZM24.3,10.157v2.385l-2.035,1.222a2.719,2.719,0,0,1-.167-.91A2.758,2.758,0,0,1,24.3,10.157Z" transform="translate(-8.989 -3.596)"/><path d="M39.551,17.258h8.809a.55.55,0,0,0,.551-.551v-2.2a.55.55,0,0,0-.551-.551h-.551V12.3h-1.1v1.652h-1.1V11.2h-1.1v2.753H43.4V10.1H42.3v3.854H41.2V9H40.1v4.955h-.551a.55.55,0,0,0-.551.551v2.2A.55.55,0,0,0,39.551,17.258Zm.551-2.2h7.708v1.1H40.1Z" transform="translate(-17.08 -3.596)"/><path d="M47,26h5.505v1.1H47Z" transform="translate(-20.675 -11.237)"/><path d="M28,26h3.854v1.1H28Z" transform="translate(-12.135 -11.237)"/><path d="M22.854,47h-3.3a.55.55,0,0,0-.551.551V49.2a2.2,2.2,0,1,0,4.4,0V47.551A.55.55,0,0,0,22.854,47ZM22.3,49.2a1.1,1.1,0,1,1-2.2,0V48.1h2.2Z" transform="translate(-8.09 -20.675)"/></g></svg>