<svg xmlns="http://www.w3.org/2000/svg" width="21" height="21.004" viewBox="0 0 21 21.004"><defs><style>.a{fill:#3a3a3a;}</style></defs><g transform="translate(-0.05)"><g transform="translate(5.247)"><path class="a" d="M126.087,14.868h-14.4V.469a.469.469,0,0,0-.939,0V15.1a.7.7,0,0,0,.695.7h14.638a.469.469,0,0,0,0-.939Z" transform="translate(-110.749)"/></g><g transform="translate(14.918 17.568)"><path class="a" d="M317.219,374.2a.471.471,0,0,0-.469.469v2.5a.469.469,0,1,0,.939,0v-2.5A.471.471,0,0,0,317.219,374.2Z" transform="translate(-316.75 -374.2)"/></g><g transform="translate(7.463 5.197)"><path class="a" d="M165.649,110.7h-7.23a.469.469,0,1,0,0,.939h6.986v7.08a.469.469,0,1,0,.939,0V111.4A.7.7,0,0,0,165.649,110.7Z" transform="translate(-157.95 -110.7)"/></g><g transform="translate(0.05 5.197)"><g transform="translate(0)"><path class="a" d="M3.261,110.7H.519a.469.469,0,1,0,0,.939H3.261a.469.469,0,1,0,0-.939Z" transform="translate(-0.05 -110.7)"/></g></g></g></svg>