<svg xmlns="http://www.w3.org/2000/svg" width="24" height="24" viewBox="0 0 24 24"><defs><style>.a{fill:#3a3a3a;}</style></defs><path class="a" d="M12,19a6,6,0,1,1,6-6A6.018,6.018,0,0,1,12,19ZM12,8a5,5,0,1,0,5,5A4.951,4.951,0,0,0,12,8Z"/><path class="a" d="M12,17a.472.472,0,0,1-.5-.5v-1a.5.5,0,0,1,1,0v1A.472.472,0,0,1,12,17Z"/><path class="a" d="M12.2,16H10.4a.5.5,0,0,1,0-1h1.8a.789.789,0,0,0,.8-.8.736.736,0,0,0-.8-.8h-.5a1.8,1.8,0,1,1,0-3.6h1.8a.472.472,0,0,1,.5.5c0,.3-.2.7-.5.7H11.7a.789.789,0,0,0-.8.8.736.736,0,0,0,.8.8h.5A1.793,1.793,0,0,1,14,14.4,1.634,1.634,0,0,1,12.2,16Z"/><path class="a" d="M12,11a.472.472,0,0,1-.5-.5v-1a.5.5,0,0,1,1,0v1A.472.472,0,0,1,12,11Z"/><path class="a" d="M12,4a2,2,0,1,1,2-2A2.006,2.006,0,0,1,12,4Zm0-3a.945.945,0,0,0-1,1,1,1,0,0,0,2,0A.945.945,0,0,0,12,1Z"/><path class="a" d="M22,7a2,2,0,1,1,2-2A2.006,2.006,0,0,1,22,7Zm0-3a.945.945,0,0,0-1,1,1,1,0,0,0,2,0A.945.945,0,0,0,22,4Z"/><path class="a" d="M21,24a2,2,0,1,1,2-2A2.006,2.006,0,0,1,21,24Zm0-3a1,1,0,1,0,1,1A.945.945,0,0,0,21,21Z"/><path class="a" d="M2,24a2,2,0,1,1,2-2A2.006,2.006,0,0,1,2,24Zm0-3a1,1,0,0,0,0,2,1,1,0,0,0,0-2Z"/><path class="a" d="M2,9A2,2,0,1,1,4,7,2.006,2.006,0,0,1,2,9ZM2,6A.945.945,0,0,0,1,7,.945.945,0,0,0,2,8,.945.945,0,0,0,3,7,.945.945,0,0,0,2,6Z"/><path class="a" d="M16.5,10.4a.758.758,0,0,1-.4-.2.483.483,0,0,1,0-.7l4.3-4a.495.495,0,0,1,.7.7l-4.3,4c-.1.1-.2.2-.3.2Z"/><path class="a" d="M12,8a.472.472,0,0,1-.5-.5v-4a.5.5,0,0,1,1,0v4A.472.472,0,0,1,12,8Z"/><path class="a" d="M20,21.4a.367.367,0,0,1-.3-.1l-4.3-3.8a.495.495,0,1,1,.7-.7l4.3,3.8a.483.483,0,0,1,0,.7c-.1,0-.3.1-.4.1Z"/><path class="a" d="M3.1,21.5a.758.758,0,0,1-.4-.2.483.483,0,0,1,0-.7l4.8-4.3a.495.495,0,1,1,.7.7L3.4,21.3c-.1.2-.2.2-.3.2Z"/><path class="a" d="M7.3,10.7a.367.367,0,0,1-.3-.1L3,8.2a.483.483,0,0,1-.1-.7.481.481,0,0,1,.6-.2l4,2.4a.574.574,0,0,1,.2.7c-.1.2-.2.3-.4.3Z"/></svg>