<svg xmlns="http://www.w3.org/2000/svg" width="15.352" height="20.5" viewBox="0 0 15.352 20.5"><defs><style>.a{fill:#3a3a3a;}</style></defs><g transform="translate(4.582)"><path class="a" d="M145.627,176.669a2.334,2.334,0,1,0-2.334-2.334A2.334,2.334,0,0,0,145.627,176.669Zm0-3.761a1.431,1.431,0,1,1-1.431,1.431A1.431,1.431,0,0,1,145.627,172.908Zm0,0" transform="translate(-142.533 -165.787)"/><path class="a" d="M112.253,325.122a3.5,3.5,0,0,0-2.538,1.061,3.745,3.745,0,0,0-1.048,2.651.453.453,0,0,0,.452.452h6.267a.453.453,0,0,0,.452-.452,3.745,3.745,0,0,0-1.048-2.651,3.5,3.5,0,0,0-2.538-1.061Zm-2.651,3.26a2.761,2.761,0,0,1,.759-1.567,2.66,2.66,0,0,1,3.784,0,2.776,2.776,0,0,1,.759,1.567Zm0,0" transform="translate(-109.159 -313.378)"/><path class="a" d="M8.513,0H-2.324A2.259,2.259,0,0,0-4.582,2.258V18.242A2.259,2.259,0,0,0-2.324,20.5H8.513a2.259,2.259,0,0,0,2.258-2.258V2.258A2.259,2.259,0,0,0,8.513,0ZM9.867,18.242A1.359,1.359,0,0,1,8.513,19.6H-2.324a1.359,1.359,0,0,1-1.355-1.355V2.258A1.359,1.359,0,0,1-2.324.9H8.513A1.359,1.359,0,0,1,9.867,2.258Zm0,0"/><path class="a" d="M143.745,59.778h3.612a.452.452,0,0,0,0-.9h-3.612a.452.452,0,0,0,0,.9Zm0,0" transform="translate(-142.533 -56.748)"/></g></svg>