<svg xmlns="http://www.w3.org/2000/svg" width="19" height="18.262" viewBox="0 0 19 18.262"><defs><style>.a{fill:#3a3a3a;}</style></defs><g transform="translate(-0.001 -8.401)"><g transform="translate(0.001 8.401)"><g transform="translate(0 0)"><path class="a" d="M18.943,14.02,15.037,8.559a.351.351,0,0,0-.284-.158H4.624a.351.351,0,0,0-.137.032H4.463a.351.351,0,0,0-.105.084L.076,14a.351.351,0,0,0,.277.569H.9V26.312a.351.351,0,0,0,.351.351H17.756a.351.351,0,0,0,.351-.351V14.565h.544a.351.351,0,0,0,.291-.544ZM1.077,13.862,4.614,9.349l3.235,4.513Zm2.392,12.1V22.1h2.69l0,3.863Zm4.752,0H6.865V21.747a.351.351,0,0,0-.351-.351h-3.4a.351.351,0,0,0-.351.351v4.214H1.6v-11.4h6.62Zm9.191,0H8.923v-11.4h8.488Zm.351-12.088H8.709L5.292,9.1h9.282l3.4,4.748Z" transform="translate(-0.001 -8.401)"/></g></g><g transform="translate(5.604 15.853)"><g transform="translate(0 0)"><rect class="a" width="1.745" height="0.702"/></g></g><g transform="translate(2.285 15.853)"><g transform="translate(0 0)"><rect class="a" width="1.745" height="0.702"/></g></g><g transform="translate(5.604 18.544)"><g transform="translate(0 0)"><rect class="a" width="1.745" height="0.702"/></g></g><g transform="translate(2.285 18.544)"><g transform="translate(0 0)"><rect class="a" width="1.745" height="0.702"/></g></g><g transform="translate(10.37 16.893)"><g transform="translate(0 0)"><path class="a" d="M242.256,203.636l-1.191-1.651a.351.351,0,0,0-.284-.144h-4.232a.339.339,0,0,0-.348.351v3.013a.351.351,0,0,0,.348.351h4.232a.351.351,0,0,0,.351-.351v-1.011h.839a.351.351,0,0,0,.284-.558Zm-1.826,1.222H236.9V203.14l.8.934a.351.351,0,0,0,.267.123h2.458Zm-2.283-1.366-.815-.948h3.273l.685.948Z" transform="translate(-236.201 -201.841)"/></g></g></g></svg>