<svg xmlns="http://www.w3.org/2000/svg" width="20.499" height="20.499" viewBox="0 0 20.499 20.499"><defs><style>.a{fill:#3a3a3a;}</style></defs><g transform="translate(0)"><path class="a" d="M4.354,0A2.116,2.116,0,0,0,3.242.313,2.13,2.13,0,0,0,.624,3.636L2.818,5.83a.6.6,0,0,0,.849,0L5.86,3.636A2.13,2.13,0,0,0,4.354,0Zm.657,2.787L3.242,4.556,1.473,2.787A.929.929,0,1,1,2.787,1.473l.031.031a.6.6,0,0,0,.849,0L3.7,1.473A.929.929,0,0,1,5.011,2.787Z" transform="translate(0 0)"/><path class="a" d="M213.01,20H203.4a1.4,1.4,0,0,0-1.4,1.4V23a1.4,1.4,0,0,0,1.4,1.4h9.609a1.4,1.4,0,0,0,1.4-1.4V21.4A1.4,1.4,0,0,0,213.01,20ZM203.2,23V21.4a.2.2,0,0,1,.2-.2h6.606v2H203.4A.2.2,0,0,1,203.2,23Zm10.009,0a.2.2,0,0,1-.2.2h-1.8v-2h1.8a.2.2,0,0,1,.2.2Z" transform="translate(-193.912 -19.199)"/><path class="a" d="M213.01,382H203.4a1.4,1.4,0,0,0-1.4,1.4V385a1.4,1.4,0,0,0,1.4,1.4h9.609a1.4,1.4,0,0,0,1.4-1.4v-1.6A1.4,1.4,0,0,0,213.01,382Zm-9.809,3v-1.6a.2.2,0,0,1,.2-.2H206v2h-2.6A.2.2,0,0,1,203.2,385Zm10.009,0a.2.2,0,0,1-.2.2H207.2v-2h5.805a.2.2,0,0,1,.2.2Z" transform="translate(-193.912 -366.706)"/><path class="a" d="M213.01,201H203.4a1.4,1.4,0,0,0-1.4,1.4V204a1.4,1.4,0,0,0,1.4,1.4h9.609a1.4,1.4,0,0,0,1.4-1.4v-1.6A1.4,1.4,0,0,0,213.01,201Zm-9.809,3v-1.6a.2.2,0,0,1,.2-.2h4.2v2h-4.2A.2.2,0,0,1,203.2,204Zm10.009,0a.2.2,0,0,1-.2.2h-4.2v-2h4.2a.2.2,0,0,1,.2.2Z" transform="translate(-193.912 -192.953)"/><path class="a" d="M8.631,172.841,7.2,172.633l-.641-1.3a.6.6,0,0,0-1.077,0l-.641,1.3-1.433.208a.6.6,0,0,0-.333,1.024l1.037,1.011L3.866,176.3a.6.6,0,0,0,.871.633l1.282-.674,1.282.674a.6.6,0,0,0,.871-.633l-.245-1.427,1.037-1.011a.6.6,0,0,0-.333-1.024Zm-1.768,1.4a.6.6,0,0,0-.173.532l.092.539-.484-.254a.6.6,0,0,0-.559,0l-.484.254.092-.539a.6.6,0,0,0-.173-.532l-.392-.382.541-.079a.6.6,0,0,0,.452-.329l.242-.49.242.49a.6.6,0,0,0,.452.329l.541.079Z" transform="translate(-2.776 -164.154)"/><path class="a" d="M20.583,362h-4a.6.6,0,0,0-.6.6v1.848a3.767,3.767,0,0,0,2.379,3.514.6.6,0,0,0,.446,0,3.767,3.767,0,0,0,2.379-3.514V362.6A.6.6,0,0,0,20.583,362Zm-.6,2.448a2.57,2.57,0,0,1-1.4,2.3,2.57,2.57,0,0,1-1.4-2.3V363.2h2.8Z" transform="translate(-15.339 -347.507)"/></g></svg>