<svg height="496pt" viewBox="-56 0 496 496" width="496pt" xmlns="http://www.w3.org/2000/svg"><path d="m128 232h-48c-4.417969 0-8 3.582031-8 8v48c0 4.417969 3.582031 8 8 8h48c4.417969 0 8-3.582031 8-8v-48c0-4.417969-3.582031-8-8-8zm-8 48h-32v-32h32zm0 0"/><path d="m128 312h-48c-4.417969 0-8 3.582031-8 8v48c0 4.417969 3.582031 8 8 8h48c4.417969 0 8-3.582031 8-8v-48c0-4.417969-3.582031-8-8-8zm-8 48h-32v-32h32zm0 0"/><path d="m128 392h-48c-4.417969 0-8 3.582031-8 8v48c0 4.417969 3.582031 8 8 8h48c4.417969 0 8-3.582031 8-8v-48c0-4.417969-3.582031-8-8-8zm-8 48h-32v-32h32zm0 0"/><path d="m216 232h-48c-4.417969 0-8 3.582031-8 8v48c0 4.417969 3.582031 8 8 8h48c4.417969 0 8-3.582031 8-8v-48c0-4.417969-3.582031-8-8-8zm-8 48h-32v-32h32zm0 0"/><path d="m216 312h-48c-4.417969 0-8 3.582031-8 8v48c0 4.417969 3.582031 8 8 8h48c4.417969 0 8-3.582031 8-8v-48c0-4.417969-3.582031-8-8-8zm-8 48h-32v-32h32zm0 0"/><path d="m216 392h-48c-4.417969 0-8 3.582031-8 8v48c0 4.417969 3.582031 8 8 8h48c4.417969 0 8-3.582031 8-8v-48c0-4.417969-3.582031-8-8-8zm-8 48h-32v-32h32zm0 0"/><path d="m304 232h-48c-4.417969 0-8 3.582031-8 8v48c0 4.417969 3.582031 8 8 8h48c4.417969 0 8-3.582031 8-8v-48c0-4.417969-3.582031-8-8-8zm-8 48h-32v-32h32zm0 0"/><path d="m304 312h-48c-4.417969 0-8 3.582031-8 8v48c0 4.417969 3.582031 8 8 8h48c4.417969 0 8-3.582031 8-8v-48c0-4.417969-3.582031-8-8-8zm-8 48h-32v-32h32zm0 0"/><path d="m304 392h-48c-4.417969 0-8 3.582031-8 8v48c0 4.417969 3.582031 8 8 8h48c4.417969 0 8-3.582031 8-8v-48c0-4.417969-3.582031-8-8-8zm-8 48h-32v-32h32zm0 0"/><path d="m320 56h-256c-4.417969 0-8 3.582031-8 8v136c0 4.417969 3.582031 8 8 8h256c4.417969 0 8-3.582031 8-8v-136c0-4.417969-3.582031-8-8-8zm-8 136h-240v-120h240zm0 0"/><path d="m344 0h-304c-22.082031.0273438-39.9726562 17.917969-40 40v416c.0273438 22.082031 17.917969 39.972656 40 40h304c22.082031-.027344 39.972656-17.917969 40-40v-416c-.027344-22.082031-17.917969-39.9726562-40-40zm24 456c0 13.253906-10.746094 24-24 24h-304c-13.253906 0-24-10.746094-24-24v-416c0-13.253906 10.746094-24 24-24h304c13.253906 0 24 10.746094 24 24zm0 0"/><path d="m88 32c0-4.417969-3.582031-8-8-8h-40c-8.835938 0-16 7.164062-16 16v88c0 4.417969 3.582031 8 8 8s8-3.582031 8-8v-88h40c4.417969 0 8-3.582031 8-8zm0 0"/><path d="m110.625 126.183594 1.375-1.511719v35.328125c0 4.417969 3.582031 8 8 8s8-3.582031 8-8v-56c0-3.304688-2.03125-6.273438-5.113281-7.464844-3.085938-1.191406-6.582031-.367187-8.808594 2.082032l-15.285156 16.796874c-1.972657 2.109376-2.660157 5.113282-1.796875 7.867188.863281 2.753906 3.144531 4.828125 5.964844 5.429688 2.824218.601562 5.75-.363282 7.664062-2.527344zm0 0"/><path d="m264 152c-4.335938 0-8-2.742188-8-6 0-4.417969-3.582031-8-8-8s-8 3.582031-8 8c1.066406 12.460938 11.492188 22.03125 24 22.03125s22.933594-9.570312 24-22.03125c-.023438-5.191406-1.988281-10.183594-5.503906-14 3.515625-3.816406 5.480468-8.808594 5.503906-14-1.066406-12.460938-11.492188-22.03125-24-22.03125s-22.933594 9.570312-24 22.03125c0 4.417969 3.582031 8 8 8s8-3.582031 8-8c0-3.257812 3.664062-6 8-6s8 2.742188 8 6-3.664062 6-8 6c-4.417969 0-8 3.582031-8 8s3.582031 8 8 8c4.335938 0 8 2.742188 8 6s-3.664062 6-8 6zm0 0"/><path d="m176 128.800781c4.417969 0 8-3.582031 8-8-.054688-4.800781 3.792969-8.738281 8.59375-8.800781 2.601562-.082031 5.035156 1.289062 6.308594 3.558594 1.5 2.683594 1.457031 5.960937-.109375 8.601562-5.605469 8.171875-12.285157 15.550782-19.855469 21.945313-3.027344 2.832031-5.976562 5.597656-8.625 8.269531-2.269531 2.296875-2.9375 5.730469-1.695312 8.707031 1.246093 2.976563 4.15625 4.917969 7.382812 4.917969h32c4.417969 0 8-3.582031 8-8s-3.582031-8-8-8h-12c6.386719-5.824219 11.96875-12.46875 16.601562-19.769531 4.457032-7.589844 4.523438-16.984375.175782-24.636719-4.128906-7.234375-11.847656-11.671875-20.175782-11.59375-13.636718.070312-24.640624 11.164062-24.601562 24.800781 0 4.417969 3.582031 8 8 8zm0 0"/></svg>