<svg id="Layer_1" enable-background="new 0 0 512 512" height="512" viewBox="0 0 512 512" width="512" xmlns="http://www.w3.org/2000/svg"><g><path d="m442.318 186.942c4.143 0 7.5-3.357 7.5-7.5v-113.668c0-19.125-15.56-34.685-34.685-34.685h-97.548c-4.338 0-8.145-2.775-9.474-6.905l-2.211-6.872c-3.328-10.355-12.874-17.312-23.752-17.312h-52.297c-10.878 0-20.424 6.957-23.753 17.312l-2.211 6.873c-1.329 4.13-5.136 6.905-9.474 6.905h-97.547c-19.125 0-34.685 15.56-34.685 34.685v411.541c0 19.125 15.56 34.685 34.685 34.685h318.268c19.125 0 34.685-15.56 34.685-34.685v-262.899c0-4.143-3.357-7.5-7.5-7.5s-7.5 3.357-7.5 7.5v262.898c0 10.854-8.83 19.685-19.685 19.685h-318.268c-10.854 0-19.685-8.83-19.685-19.685v-411.541c0-10.854 8.83-19.685 19.685-19.685h71.641v14.77h-69.679c-4.143 0-7.5 3.357-7.5 7.5v406.371c0 4.143 3.357 7.5 7.5 7.5h31.956c4.143 0 7.5-3.357 7.5-7.5s-3.357-7.5-7.5-7.5h-24.456v-391.371h62.179v6.991c0 4.143 3.357 7.5 7.5 7.5h12.5v10.845c0 13.063 10.627 23.689 23.688 23.689h87.609c13.062 0 23.688-10.627 23.688-23.689v-10.844h12.5c4.143 0 7.5-3.357 7.5-7.5v-6.991h62.179v330.15h-53.72c-4.143 0-7.5 3.357-7.5 7.5v53.721h-179.342c-4.143 0-7.5 3.357-7.5 7.5s3.357 7.5 7.5 7.5h186.843c1.989 0 3.896-.79 5.304-2.196l61.22-61.221c1.406-1.407 2.196-3.314 2.196-5.304v-345.151c0-4.143-3.357-7.5-7.5-7.5h-69.679v-14.769h71.641c10.854 0 19.685 8.83 19.685 19.685v113.668c-.001 4.142 3.357 7.499 7.499 7.499zm-47.252 234.068-35.614 35.614v-35.614zm-86.573-319.815c0 4.791-3.897 8.689-8.688 8.689h-87.609c-4.791 0-8.688-3.898-8.688-8.689v-10.844h104.986v10.844zm20-25.844h-144.986v-29.261h10.907c10.876 0 20.422-6.957 23.753-17.312l2.211-6.874c1.328-4.13 5.136-6.904 9.474-6.904h52.297c4.338 0 8.146 2.774 9.474 6.905l2.211 6.873c3.331 10.354 12.877 17.312 23.753 17.312h10.907v29.261z"/><path d="m157.598 298.905c0 15.616 12.704 28.321 28.32 28.321h140.164c15.616 0 28.32-12.705 28.32-28.321 0-8.6-5.254-15.995-12.72-19.145.877-2.297 1.358-4.788 1.358-7.389 0-7.104-2.63-13.606-6.967-18.583 4.272-3.806 6.967-9.347 6.967-15.506 0-5.677-1.679-10.969-4.567-15.406 9.355-3.991 15.929-13.281 15.929-24.078 0-22.039-17.931-39.97-39.97-39.97h-116.865c-22.039 0-39.97 17.931-39.97 39.971 0 10.797 6.574 20.086 15.929 24.077-2.888 4.437-4.567 9.729-4.567 15.406 0 6.158 2.695 11.699 6.967 15.506-4.337 4.977-6.967 11.479-6.967 18.583 0 2.601.481 5.092 1.358 7.389-7.465 3.15-12.719 10.546-12.719 19.145zm168.484 13.322h-140.164c-7.345 0-13.32-5.976-13.32-13.321 0-3.181 2.587-5.768 5.767-5.768h155.271c3.18 0 5.767 2.587 5.767 5.768-.001 7.345-5.976 13.321-13.321 13.321zm-142.122-39.856c0-7.346 5.976-13.321 13.321-13.321h2.824c5.263 0 9.544 4.281 9.544 9.544 0 3.383.688 6.609 1.932 9.544h-21.854c-3.18 0-5.767-2.587-5.767-5.767zm130.759-13.321c7.346 0 13.321 5.976 13.321 13.321 0 3.18-2.587 5.767-5.768 5.767h-65.466c1.244-2.935 1.932-6.161 1.932-9.544 0-5.263 4.281-9.544 9.544-9.544zm-117.152-85.222h116.865c13.769 0 24.97 11.202 24.97 24.971 0 6.155-5.007 11.162-11.162 11.162h-83.56c-4.143 0-7.5 3.357-7.5 7.5s3.357 7.5 7.5 7.5h70.039c7.346 0 13.321 5.976 13.321 13.321 0 3.181-2.587 5.768-5.768 5.768h-53.99c-13.533 0-24.544 11.011-24.544 24.544 0 5.263-4.282 9.544-9.545 9.544s-9.544-4.281-9.544-9.544c0-13.533-11.011-24.544-24.544-24.544h-10.378c-3.181 0-5.768-2.587-5.768-5.768 0-7.346 5.976-13.321 13.321-13.321h12.964c4.143 0 7.5-3.357 7.5-7.5s-3.357-7.5-7.5-7.5h-26.484c-6.155 0-11.162-5.008-11.162-11.163 0-13.769 11.201-24.97 24.969-24.97z"/><path d="m321.075 361.476c0-4.143-3.357-7.5-7.5-7.5h-115.15c-4.143 0-7.5 3.357-7.5 7.5s3.357 7.5 7.5 7.5h115.15c4.143 0 7.5-3.358 7.5-7.5z"/><path d="m226 388.976c-4.143 0-7.5 3.357-7.5 7.5s3.357 7.5 7.5 7.5h60c4.143 0 7.5-3.357 7.5-7.5s-3.357-7.5-7.5-7.5z"/></g></svg>