<svg height="498.00204pt" viewBox="0 0 498.00204 498.00204" width="498.00204pt" xmlns="http://www.w3.org/2000/svg"><path d="m249 97.441406c-83.570312 0-151.558594 67.988282-151.558594 151.558594s67.988282 151.558594 151.558594 151.558594 151.558594-67.988282 151.558594-151.558594-67.988282-151.558594-151.558594-151.558594zm-77.792969 264.945313v-48.910157c0-.238281-.011719-.472656-.035156-.707031-.9375-9.273437 2.09375-18.511719 8.34375-25.425781s15.136719-10.859375 24.457031-10.859375h5.539063l12.773437 48.992187c.695313 2.667969 2.894532 4.679688 5.617188 5.136719 2.71875.457031 5.453125-.730469 6.984375-3.023437.140625-.214844.273437-.4375.390625-.664063l12.800781-24.699219h.796875l13.949219 24.90625c1.378906 2.46875 4.113281 3.863282 6.921875 3.53125 2.8125-.328124 5.144531-2.320312 5.917968-5.039062l13.941407-49.140625h4.421875c9.320312.003906 18.203125 3.949219 24.453125 10.863281 6.25 6.914063 9.277343 16.152344 8.339843 25.421875-.023437.234375-.035156.472657-.035156.707031v48.910157c-46.855468 32.234375-108.730468 32.234375-155.585937 0zm74.453125-84.722657h5.5l-2.753906 8.785157zm95.132813 73.695313v-37.542969c1.226562-13.15625-3.144531-26.222656-12.042969-35.992187s-21.5-15.339844-34.714844-15.339844h-9.710937c-3.128907 0-5.878907 2.078125-6.734375 5.089844l-10.78125 38-6.234375-11.128907 6.796875-21.691406c.664062-2.125.28125-4.441406-1.039063-6.238281-1.320312-1.792969-3.414062-2.855469-5.640625-2.855469h-24.5625c-2.226562 0-4.320312 1.0625-5.640625 2.855469-1.316406 1.796875-1.703125 4.113281-1.039062 6.238281l6.832031 21.804688-5.046875 9.742187-9.535156-36.582031c-.804688-3.082031-3.585938-5.234375-6.773438-5.234375h-10.953125c-13.214844 0-25.820312 5.566406-34.722656 15.335937-8.898438 9.769532-13.269531 22.835938-12.042969 35.996094v37.542969c-29.132812-26.046875-45.78125-63.28125-45.765625-102.359375 0-75.851562 61.707032-137.558594 137.558594-137.558594s137.558594 61.707032 137.558594 137.558594c.015625 39.078125-16.632813 76.3125-45.765625 102.359375zm0 0"/><path d="m495.941406 244.042969-28.960937-28.867188c-1.765625-1.792969-4.359375-2.5-6.792969-1.851562-2.433594.644531-4.328125 2.550781-4.96875 4.984375s.078125 5.027344 1.878906 6.785156l16.960938 16.90625h-50.507813c-3.863281 0-7 3.132812-7 7s3.136719 7 7 7h50.507813l-16.960938 16.90625c-1.796875 1.757812-2.515625 4.347656-1.875 6.785156.636719 2.433594 2.535156 4.335938 4.96875 4.984375 2.433594.648438 5.023438-.058593 6.789063-1.855469l28.964843-28.863281c1.316407-1.3125 2.058594-3.097656 2.058594-4.957031s-.742187-3.644531-2.058594-4.957031zm0 0"/><path d="m272.90625 457.097656-16.90625 16.960938v-50.507813c0-3.867187-3.132812-7-7-7s-7 3.132813-7 7v50.507813l-16.90625-16.960938c-1.757812-1.796875-4.351562-2.515625-6.785156-1.875-2.433594.636719-4.339844 2.535156-4.984375 4.96875-.648438 2.433594.058593 5.023438 1.851562 6.789063l28.867188 28.964843c1.3125 1.316407 3.097656 2.058594 4.957031 2.058594s3.644531-.742187 4.957031-2.058594l28.863281-28.964843c2.730469-2.738281 2.722657-7.167969-.015624-9.898438-2.738282-2.730469-7.171876-2.722656-9.898438.015625zm0 0"/><path d="m225.09375 40.898438 16.90625-16.957032v50.507813c0 3.863281 3.132812 7 7 7s7-3.136719 7-7v-50.507813l16.90625 16.957032c1.757812 1.800781 4.347656 2.519531 6.785156 1.878906 2.433594-.640625 4.335938-2.535156 4.984375-4.96875.648438-2.433594-.058593-5.027344-1.855469-6.792969l-28.863281-28.957031c-1.3125-1.316406-3.097656-2.058594-4.957031-2.058594s-3.644531.742188-4.957031 2.058594l-28.867188 28.960937c-2.726562 2.738281-2.71875 7.171875.019531 9.902344 2.738282 2.726563 7.167969 2.71875 9.898438-.019531zm0 0"/><path d="m23.9375 256h50.507812c3.867188 0 7-3.132812 7-7s-3.132812-7-7-7h-50.507812l16.960938-16.90625c2.695312-2.738281 2.679687-7.132812-.03125-9.851562-2.710938-2.71875-7.105469-2.746094-9.851563-.066407l-28.957031 28.867188c-1.316406 1.3125-2.058594 3.097656-2.058594 4.957031s.742188 3.644531 2.058594 4.957031l28.960937 28.863281c1.765625 1.796876 4.359375 2.503907 6.792969 1.855469 2.429688-.648437 4.328125-2.550781 4.96875-4.984375.640625-2.4375-.078125-5.027344-1.878906-6.785156zm0 0"/><path d="m420.050781 372.230469h-.011719c-3.867187.003906-6.996093 3.144531-6.988281 7.011719l.039063 23.949218-35.710938-35.714844c-2.734375-2.734374-7.167968-2.734374-9.902344 0-2.734374 2.734376-2.734374 7.167969 0 9.898438l35.714844 35.714844-23.949218-.039063h-.011719c-3.867188-.003906-7.003907 3.125-7.007813 6.992188 0 3.867187 3.128906 7.003906 6.996094 7.007812l40.890625.066407h.011719c1.859375 0 3.640625-.738282 4.953125-2.054688 1.3125-1.3125 2.050781-3.097656 2.046875-4.953125l-.070313-40.890625c-.003906-3.863281-3.136719-6.988281-7-6.988281zm0 0"/><path d="m120.621094 367.476562-35.714844 35.714844.042969-23.949218c.007812-3.867188-3.121094-7.007813-6.988281-7.011719h-.011719c-3.863281 0-6.992188 3.125-7 6.988281l-.070313 40.886719c-.003906 1.859375.734375 3.644531 2.046875 4.957031 1.3125 1.316406 3.09375 2.054688 4.953125 2.054688h.011719l40.890625-.070313c3.867188 0 6.996094-3.136719 6.996094-7.003906-.003906-3.867188-3.140625-6.996094-7.007813-6.996094h-.011719l-23.949218.042969 35.714844-35.714844c2.734374-2.734375 2.734374-7.164062 0-9.898438-2.734376-2.734374-7.167969-2.734374-9.898438 0zm0 0"/><path d="m372.425781 132.574219c1.859375 0 3.640625-.738281 4.949219-2.050781l35.714844-35.714844-.039063 23.949218c-.007812 3.867188 3.121094 7.007813 6.988281 7.011719h.011719c3.859375 0 6.992188-3.125 7-6.988281l.070313-40.886719c0-1.859375-.734375-3.644531-2.046875-4.957031-1.3125-1.316406-3.097657-2.054688-4.953125-2.054688h-.011719l-40.890625.070313c-3.867188 0-7 3.136719-6.996094 7.003906.003906 3.867188 3.140625 6.996094 7.007813 6.996094h.011719l23.949218-.042969-35.714844 35.714844c-2 2-2.601562 5.011719-1.515624 7.628906 1.082031 2.613282 3.636718 4.320313 6.464843 4.320313zm0 0"/><path d="m77.949219 125.769531h.011719c3.867187-.007812 6.996093-3.144531 6.988281-7.011719l-.042969-23.949218 35.714844 35.714844c2.734375 2.734374 7.167968 2.734374 9.902344 0 2.730468-2.734376 2.730468-7.167969 0-9.902344l-35.714844-35.710938 23.949218.039063h.011719c3.863281.003906 7-3.125 7.003907-6.992188.003906-3.867187-3.125-7.003906-6.992188-7.007812l-40.890625-.066407h-.011719c-1.859375 0-3.640625.738282-4.953125 2.054688-1.3125 1.3125-2.050781 3.097656-2.046875 4.953125l.070313 40.890625c.003906 3.863281 3.136719 6.988281 7 6.988281zm0 0"/><path d="m257.667969 142.78125h-41.105469c-7.933594.011719-14.363281 6.441406-14.371094 14.375v57.015625c.117188 25.027344 20.4375 45.253906 45.464844 45.253906 25.023438 0 45.347656-20.226562 45.464844-45.253906v-35.9375c-.023438-19.570313-15.882813-35.429687-35.453125-35.453125zm21.292969 32.960938c-13.136719 4.109374-26.800782 1.222656-40.695313-8.660157-4.277344-3.074219-8.273437-6.519531-11.945313-10.296875h31.347657c10.875.015625 20.019531 8.15625 21.292969 18.957032zm-50.542969 1.488281c-3.140625 4.578125-7.335938 8.335937-12.226563 10.964843v-21.734374c3.792969 3.898437 7.878906 7.5 12.226563 10.769531zm19.238281 68.40625c-17.371094-.019531-31.445312-14.09375-31.464844-31.464844v-10.859375c12.175782-3.957031 19.941406-12.640625 24.074219-18.65625 8.335937 4.429688 17.609375 6.804688 27.046875 6.917969 3.976562-.007813 7.9375-.464844 11.804688-1.367188v23.964844c-.019532 17.371094-14.09375 31.445313-31.460938 31.464844zm0 0"/></svg>