<?xml version="1.0" encoding="iso-8859-1"?>
<!-- Generator: Adobe Illustrator 19.0.0, SVG Export Plug-In . SVG Version: 6.00 Build 0)  -->
<svg version="1.1" id="Layer_1" xmlns="http://www.w3.org/2000/svg" xmlns:xlink="http://www.w3.org/1999/xlink" x="0px" y="0px"
	 viewBox="0 0 511.999 511.999" style="enable-background:new 0 0 511.999 511.999;" xml:space="preserve">
<g>
	<g>
		<path d="M322.11,44.044c-2.307-7.498-10.254-11.709-17.753-9.399c-3.133,0.964-6.286,1.804-9.45,2.577l-8.909-33.274
			c-0.742-2.772-3.547-4.457-6.343-3.81l-16.554,3.829c-4.622,1.069-9.428,1.069-14.049,0L232.5,0.138
			c-2.795-0.647-5.601,1.038-6.343,3.81l-8.909,33.274c-3.164-0.772-6.318-1.613-9.45-2.577c-7.504-2.31-15.447,1.901-17.753,9.399
			c-2.308,7.498,1.9,15.447,9.398,17.753c5.565,1.712,11.178,3.161,16.824,4.359c-0.869,22.78,17.352,41.391,39.809,41.391
			c22.425,0,40.68-18.579,39.81-41.391c5.646-1.198,11.259-2.648,16.824-4.359C320.209,59.491,324.417,51.542,322.11,44.044z"/>
	</g>
</g>
<g>
	<g>
		<path d="M308.011,120.25c-5.287,0-53.785,0-103.866,0c-24.871,0-45.205,20.309-45.33,45.369v141.253
			c0,10.619,8.608,19.227,19.227,19.227s19.227-8.608,19.227-19.227V165.714c0-0.011,0-0.022,0-0.033
			c0-2.179,1.766-3.945,3.943-3.945c2.179,0,3.945,1.765,3.945,3.943l0.003,99.622h16.899c4.328-14.33,18.706-23.863,34.915-23.863
			c16.229,0,30.593,9.551,34.915,23.863h15.22c-0.059-36.629-0.103-71.224-0.11-99.879c0-2.135,1.73-3.867,3.866-3.867
			s3.867,1.73,3.867,3.866c0,0.064,0,0.13-0.001,0.195v141.253c0,10.619,8.608,19.227,19.227,19.227s19.227-8.608,19.227-19.227
			v-141.35C353.059,140.558,332.793,120.25,308.011,120.25z M298.122,172.109c-0.621,0-1.182-0.251-1.593-0.653l-5.296,5.161
			l1.243,7.248c0.128-0.022,0.258-0.04,0.393-0.04c1.256,0,2.273,1.017,2.273,2.273c0,1.256-1.017,2.273-2.273,2.273
			c-1.256,0-2.273-1.017-2.273-2.273c0-0.38,0.102-0.734,0.267-1.049l-6.519-3.428l-6.517,3.427
			c0.165,0.315,0.268,0.669,0.268,1.051c0,1.256-1.017,2.273-2.273,2.273c-1.256,0-2.273-1.017-2.273-2.273
			c0-1.256,1.017-2.273,2.273-2.273c0.133,0,0.263,0.018,0.389,0.039l1.243-7.248l-5.296-5.161c-0.41,0.404-0.972,0.653-1.593,0.653
			c-1.256,0-2.273-1.017-2.273-2.273s1.017-2.273,2.273-2.273c1.166,0,2.116,0.882,2.246,2.012l7.273-1.057l3.255-6.596
			c-0.75-0.372-1.27-1.137-1.27-2.03c0-1.256,1.017-2.273,2.273-2.273s2.273,1.017,2.273,2.273c0,0.894-0.52,1.659-1.27,2.03
			l3.256,6.596l7.273,1.057c0.131-1.131,1.08-2.012,2.246-2.012c1.256,0,2.273,1.017,2.273,2.273
			C300.395,171.092,299.377,172.109,298.122,172.109z"/>
	</g>
</g>
<g>
	<g>
		<path d="M307.137,282.348h-15.248c-3.768,12.475-15.539,22.04-30.616,23.63v182.95c0,12.742,10.33,23.072,23.072,23.072
			s23.072-10.33,23.072-23.072C307.417,434.365,307.258,355.568,307.137,282.348z"/>
	</g>
</g>
<g>
	<g>
		<path d="M222.058,282.348h-16.898l0.006,206.579c0,12.742,10.33,23.072,23.072,23.072c12.742,0,23.072-10.33,23.072-23.072
			V305.811C237.062,303.819,225.761,294.607,222.058,282.348z"/>
	</g>
</g>
<g>
	<g>
		<ellipse cx="256.973" cy="273.823" rx="19.136" ry="15.341"/>
	</g>
</g>
<g>
</g>
<g>
</g>
<g>
</g>
<g>
</g>
<g>
</g>
<g>
</g>
<g>
</g>
<g>
</g>
<g>
</g>
<g>
</g>
<g>
</g>
<g>
</g>
<g>
</g>
<g>
</g>
<g>
</g>
</svg>
