<svg xmlns="http://www.w3.org/2000/svg" width="22.929" height="24.961" viewBox="0 0 22.929 24.961"><defs><style>.a{fill:#3a3a3a;}</style></defs><g transform="translate(-32.019 -16)"><path class="a" d="M54.939,36.02a.416.416,0,0,0-.187-.268L50.83,33.3a2.905,2.905,0,0,0-.193-.789l-.314-.787V28.064a6.65,6.65,0,0,0-.3-1.991l.923-2.7,1.9-.424-.315.922a1.663,1.663,0,1,0,.787.269l.555-1.624,0-.01,0-.007a.416.416,0,0,0-.1-.41L47.9,16.124a.416.416,0,0,0-.352-.12l-8.3,1.121a.416.416,0,0,0-.264.678l1.719,2.071-.961,2.811a6.68,6.68,0,0,0-2.736,5.379v4.062l-.14.281a2.9,2.9,0,0,0-.24.68l-1.685-1.161a1.867,1.867,0,0,0-2.34,2.9l4.255,4.011a.415.415,0,0,0,.129.083L41.6,40.781a.417.417,0,0,0,.231.024l3.75-.69.045-.011,3.114-.939,2.5,1.722a.416.416,0,0,0,.579-.107l3.059-4.44A.416.416,0,0,0,54.939,36.02ZM53.19,25.8a.832.832,0,1,1-.04-.636A.832.832,0,0,1,53.19,25.8Zm-5.736-8.943,5.2,5.282-7.585,1.69-4.964-5.979ZM41.33,20.624l3.263,3.931A.416.416,0,0,0,45,24.7l4.986-1.111L49.2,25.9a12.563,12.563,0,0,1-8.66-2.96ZM37.4,33.568a2.068,2.068,0,0,1,.215-.79l.184-.368a.416.416,0,0,0,.044-.186v-4.16a5.847,5.847,0,0,1,2.139-4.51,13.394,13.394,0,0,0,8.662,3.187q.345,0,.692-.018a5.84,5.84,0,0,1,.156,1.341v3.744a.416.416,0,0,0,.03.155l.29.725a5.413,5.413,0,0,0-3.484-.518l-.788.146a5.436,5.436,0,0,0-3.089,1.752l-3.375.271a1.925,1.925,0,0,0-.481.1l-1.2-.827A.425.425,0,0,0,37.4,33.568Zm13.966,6.4-2.322-1.6a.416.416,0,0,0-.356-.056L45.4,39.3l-3.608.664-4.423-1.791-4.2-3.958a1.035,1.035,0,0,1,1.3-1.606l3.365,2.319a1.914,1.914,0,0,0,1.191,3.22l4.21.439a.416.416,0,1,0,.086-.828l-4.21-.439a1.082,1.082,0,0,1,.026-2.154l3.546-.285a.416.416,0,0,0,.288-.15,4.6,4.6,0,0,1,2.714-1.6l.788-.146a4.586,4.586,0,0,1,3.269.62l4.2,2.619Z" transform="translate(0 0)"/><path class="a" d="M233.542,220.526a.416.416,0,0,1-.71-.294.416.416,0,1,0-.832,0,1.242,1.242,0,0,0,.832,1.175v.418a.416.416,0,0,0,.832,0v-.418a1.242,1.242,0,0,0,.832-1.175v-.071a1.254,1.254,0,0,0-.5-1l-1-.749a.418.418,0,0,1-.166-.333v-.071a.416.416,0,1,1,.832,0,.416.416,0,1,0,.832,0,1.242,1.242,0,0,0-.832-1.175v-.417a.416.416,0,0,0-.832,0v.418a1.242,1.242,0,0,0-.832,1.175v.071a1.254,1.254,0,0,0,.5,1l1,.749a.418.418,0,0,1,.166.333v.071A.413.413,0,0,1,233.542,220.526Z" transform="translate(-189.581 -189.6)"/><path class="a" d="M160.416,241.248a.416.416,0,0,0,.416-.416v-.416a.416.416,0,0,0-.832,0v.416A.416.416,0,0,0,160.416,241.248Z" transform="translate(-121.325 -212.352)"/><path class="a" d="M160.416,273.664a.416.416,0,0,0,.416-.416v-.832a.416.416,0,1,0-.832,0v.832A.416.416,0,0,0,160.416,273.664Z" transform="translate(-121.325 -242.688)"/></g></svg>