<svg id="Capa_1" enable-background="new 0 0 512 512" height="512" viewBox="0 0 512 512" width="512" xmlns="http://www.w3.org/2000/svg"><g><path d="m271 421.917h30v30h-30z"/><path d="m211 421.917h30v30h-30z"/><path d="m458.919 153.915c52.414-52.825 53.081-124.695 53.081-127.998l-.001-25.833-22.436 12.806c-30.55 17.437-114.307 61.265-152.972 65.696-12.641-11.581-29.461-18.669-47.915-18.669h-65.354c-18.454 0-35.274 7.089-47.915 18.669-38.664-4.431-122.421-48.259-152.97-65.696l-22.437-12.807v25.833c0 3.304.667 75.174 53.082 127.999-18.545 13.815-30.344 30.238-31.182 31.421l-6.132 8.665 6.132 8.665c1.462 2.065 36.319 50.576 82.174 50.576 5.153 0 10.354-.617 15.579-1.826 1.715 25.426 8.361 50.607 19.982 74.028.474.955.938 1.915 1.395 2.88 13.437 28.443 17.471 61.684 11.359 93.599l-2.03 10.603c-3.76 19.635 1.389 39.734 14.127 55.144 12.739 15.409 31.511 24.247 51.504 24.247h80.021c19.993 0 38.766-8.837 51.504-24.247s17.887-35.508 14.127-55.144l-2.03-10.604c-6.111-31.913-2.077-65.154 11.361-93.601.455-.963.92-1.924 1.396-2.883 11.62-23.418 18.264-48.598 19.98-74.023 5.225 1.209 10.428 1.826 15.581 1.826 45.854 0 80.711-48.511 82.173-50.576l6.132-8.665-6.132-8.665c-.839-1.181-12.639-17.605-31.184-31.42zm-27.704-15.082c-7.331-2.533-15.134-4.072-23.286-4.072-12.685 0-25.509 3.638-38.291 10.804-.146-.273-.281-.551-.429-.823l-9.626-17.808c-.419-7.502-2.025-14.688-4.604-21.396 38.703-9.308 91.794-35.549 123.509-52.369-5.049 23.984-17.349 59.102-47.273 85.664zm-397.705-85.666c31.715 16.821 84.807 43.063 123.511 52.371-2.578 6.708-4.185 13.894-4.604 21.396l-9.626 17.808c-.147.272-.283.549-.428.822-12.782-7.165-25.605-10.803-38.288-10.803-8.153 0-15.956 1.539-23.288 4.073-29.93-26.566-42.229-61.689-47.277-85.667zm20.013 140.89c10.106-11.186 29.695-29.296 50.551-29.296 8.237 0 17.005 2.838 26.159 8.444-5.308 15.174-8.697 30.864-10.17 46.704-5.538 2.199-10.896 3.334-15.989 3.334-19.706-.001-39.363-16.842-50.551-29.186zm96.981 23.328 5.806 4.373c15.688 11.817 26.934 28.014 32.522 46.841s5.003 38.537-1.695 56.999l-7.663 21.12c-2.781-10.68-6.552-21.117-11.318-31.204-.539-1.142-1.091-2.279-1.651-3.409-14.721-29.669-20.018-62.672-16.001-94.72zm173.889 251.17c-7.02 8.491-17.364 13.361-28.382 13.361h-80.021c-11.017 0-21.361-4.87-28.381-13.361s-9.857-19.567-7.785-30.387l1.806-9.43 33.709-92.907c8.904-24.542 9.684-50.742 2.254-75.769s-22.379-46.558-43.231-62.266l-16.567-12.48c3.011-9.009 6.798-17.817 11.389-26.309l13.124-24.278v-3.795c0-22.617 18.4-41.018 41.018-41.018h65.354c22.617 0 41.018 18.4 41.018 41.018v3.795l13.124 24.278c4.591 8.493 8.378 17.3 11.389 26.309l-16.567 12.48c-20.853 15.708-35.802 37.239-43.231 62.266s-6.65 51.227 2.254 75.769l33.709 92.908 1.806 9.431c2.067 10.819-.771 21.894-7.789 30.385zm21.105-156.456c-.563 1.133-1.114 2.271-1.652 3.412-4.766 10.089-8.538 20.527-11.319 31.209l-7.663-21.121c-6.698-18.462-7.284-38.172-1.695-56.999s16.835-35.024 32.522-46.841l5.806-4.373c4.017 32.046-1.28 65.048-15.999 94.713zm62.431-88.857c-5.094 0-10.453-1.135-15.992-3.335-1.473-15.839-4.861-31.528-10.17-46.702 9.155-5.606 17.923-8.445 26.162-8.445 19.705 0 39.362 16.842 50.55 29.186-10.107 11.186-29.696 29.296-50.55 29.296z"/></g></svg>