<svg height="477pt" viewBox="0 -6 477.272 477" width="477pt" xmlns="http://www.w3.org/2000/svg"><path d="m13.273438 404.9375v11.199219c0 4.640625 19.621093 16 56 16 36.375 0 56-11.359375 56-16v-11.199219c-17.574219 7.941406-36.726563 11.769531-56 11.199219-19.277344.570312-38.429688-3.257813-56-11.199219zm0 0"/><path d="m125.273438 372.9375c-17.574219 7.941406-36.726563 11.769531-56 11.199219-19.277344.570312-38.429688-3.257813-56-11.199219v11.199219c0 4.640625 19.621093 16 56 16 36.375 0 56-11.359375 56-16zm0 0"/><path d="m69.273438 464.136719c36.375 0 56-11.359375 56-16v-11.199219c-17.574219 7.941406-36.726563 11.769531-56 11.199219-19.277344.570312-38.429688-3.257813-56-11.199219v11.199219c0 4.640625 19.621093 16 56 16zm0 0"/><path d="m125.273438 352.136719c0-8.835938-25.074219-16-56-16-30.929688 0-56 7.164062-56 16 0 8.835937 25.070312 16 56 16 30.925781 0 56-7.164063 56-16zm0 0"/><path d="m181.273438 404.9375v11.199219c0 4.640625 19.621093 16 56 16 36.375 0 56-11.359375 56-16v-11.199219c-17.574219 7.941406-36.726563 11.769531-56 11.199219-19.277344.570312-38.429688-3.257813-56-11.199219zm0 0"/><path d="m237.273438 464.136719c36.375 0 56-11.359375 56-16v-11.199219c-17.574219 7.941406-36.726563 11.769531-56 11.199219-19.277344.570312-38.429688-3.257813-56-11.199219v11.199219c0 4.640625 19.621093 16 56 16zm0 0"/><path d="m293.273438 340.9375c-17.574219 7.941406-36.726563 11.769531-56 11.199219-19.277344.570312-38.429688-3.257813-56-11.199219v11.199219c0 4.640625 19.621093 16 56 16 36.375 0 56-11.359375 56-16zm0 0"/><path d="m293.273438 372.9375c-17.574219 7.941406-36.726563 11.769531-56 11.199219-19.277344.570312-38.429688-3.257813-56-11.199219v11.199219c0 4.640625 19.621093 16 56 16 36.375 0 56-11.359375 56-16zm0 0"/><path d="m293.273438 288.136719c0-8.835938-25.074219-16-56-16-30.929688 0-56 7.164062-56 16 0 8.835937 25.070312 16 56 16 30.925781 0 56-7.164063 56-16zm0 0"/><path d="m293.273438 308.9375c-17.574219 7.941406-36.726563 11.769531-56 11.199219-19.277344.570312-38.429688-3.257813-56-11.199219v11.199219c0 4.640625 19.621093 16 56 16 36.375 0 56-11.359375 56-16zm0 0"/><path d="m461.273438 340.9375c-17.574219 7.941406-36.726563 11.769531-56 11.199219-19.277344.570312-38.429688-3.257813-56-11.199219v11.199219c0 4.640625 19.621093 16 56 16 36.375 0 56-11.359375 56-16zm0 0"/><path d="m461.273438 276.9375c-17.574219 7.941406-36.726563 11.769531-56 11.199219-19.277344.570312-38.429688-3.257813-56-11.199219v11.199219c0 4.640625 19.621093 16 56 16 36.375 0 56-11.359375 56-16zm0 0"/><path d="m461.273438 308.9375c-17.574219 7.941406-36.726563 11.769531-56 11.199219-19.277344.570312-38.429688-3.257813-56-11.199219v11.199219c0 4.640625 19.621093 16 56 16 36.375 0 56-11.359375 56-16zm0 0"/><path d="m461.273438 372.9375c-17.574219 7.941406-36.726563 11.769531-56 11.199219-19.277344.570312-38.429688-3.257813-56-11.199219v11.199219c0 4.640625 19.621093 16 56 16 36.375 0 56-11.359375 56-16zm0 0"/><path d="m349.273438 404.9375v11.199219c0 4.640625 19.621093 16 56 16 36.375 0 56-11.359375 56-16v-11.199219c-17.574219 7.941406-36.726563 11.769531-56 11.199219-19.277344.570312-38.429688-3.257813-56-11.199219zm0 0"/><path d="m461.273438 192.136719c0-8.835938-25.074219-16-56-16-30.929688 0-56 7.164062-56 16 0 8.835937 25.070312 16 56 16 30.925781 0 56-7.164063 56-16zm0 0"/><path d="m461.273438 244.9375c-17.574219 7.941406-36.726563 11.769531-56 11.199219-19.277344.570312-38.429688-3.257813-56-11.199219v11.199219c0 4.640625 19.621093 16 56 16 36.375 0 56-11.359375 56-16zm0 0"/><path d="m405.273438 464.136719c36.375 0 56-11.359375 56-16v-11.199219c-17.574219 7.941406-36.726563 11.769531-56 11.199219-19.277344.570312-38.429688-3.257813-56-11.199219v11.199219c0 4.640625 19.621093 16 56 16zm0 0"/><path d="m461.273438 212.9375c-17.574219 7.941406-36.726563 11.769531-56 11.199219-19.277344.570312-38.429688-3.257813-56-11.199219v11.199219c0 4.640625 19.621093 16 56 16 36.375 0 56-11.359375 56-16zm0 0"/><path d="m389.273438.136719v16h60.6875l-152 152h-167.695313l-130.265625 113.976562 10.542969 12.046875 125.738281-110.023437h168.304688l156.6875-156.6875v60.6875h16v-88zm0 0"/></svg>