<?xml version="1.0" encoding="iso-8859-1"?>
<!-- Generator: Adobe Illustrator 19.0.0, SVG Export Plug-In . SVG Version: 6.00 Build 0)  -->
<svg version="1.1" id="Capa_1" xmlns="http://www.w3.org/2000/svg" xmlns:xlink="http://www.w3.org/1999/xlink" x="0px" y="0px"
	 viewBox="0 0 496 496" style="enable-background:new 0 0 496 496;" xml:space="preserve">
<g>
	<g>
		<path d="M432,112V0H0v456c0,22.056,17.944,40,40,40h416c22.056,0,40-17.944,40-40V112H432z M40,480c-13.232,0-24-10.768-24-24V16
			h400v96v40v304c0,9.04,3.128,17.296,8.208,24H40z M480,456c0,13.232-10.768,24-24,24s-24-10.768-24-24V152v-24h48V456z"/>
	</g>
</g>
<g>
	<g>
		<path d="M144,128c-8.824,0-16-7.176-16-16c0-8.824,7.176-16,16-16c8.824,0,16,7.176,16,16h16c0-14.864-10.232-27.288-24-30.864V64
			h-16v17.136c-13.768,3.576-24,16-24,30.864c0,17.648,14.352,32,32,32c8.824,0,16,7.176,16,16c0,8.824-7.176,16-16,16
			c-8.824,0-16-7.176-16-16h-16c0,14.864,10.232,27.288,24,30.864V208h16v-17.136c13.768-3.576,24-16,24-30.864
			C176,142.352,161.648,128,144,128z"/>
	</g>
</g>
<g>
	<g>
		<path d="M32,32v208h224V32H32z M240,224H48V48h192V224z"/>
	</g>
</g>
<g>
	<g>
		<path d="M384,448V320h-48v128h-32v-96h-48v96h-32V320h-48v128h-16v16h240v-16H384z M208,448h-16V336h16V448z M288,448h-16v-80h16
			V448z M368,448h-16V336h16V448z"/>
	</g>
</g>
<g>
	<g>
		<rect x="272" y="32" width="128" height="16"/>
	</g>
</g>
<g>
	<g>
		<rect x="272" y="64" width="128" height="16"/>
	</g>
</g>
<g>
	<g>
		<rect x="272" y="96" width="128" height="16"/>
	</g>
</g>
<g>
	<g>
		<rect x="272" y="128" width="128" height="16"/>
	</g>
</g>
<g>
	<g>
		<rect x="272" y="160" width="96" height="16"/>
	</g>
</g>
<g>
	<g>
		<rect x="384" y="160" width="16" height="16"/>
	</g>
</g>
<g>
	<g>
		<rect x="32" y="256" width="128" height="16"/>
	</g>
</g>
<g>
	<g>
		<rect x="32" y="288" width="128" height="16"/>
	</g>
</g>
<g>
	<g>
		<rect x="32" y="320" width="128" height="16"/>
	</g>
</g>
<g>
	<g>
		<rect x="32" y="352" width="128" height="16"/>
	</g>
</g>
<g>
	<g>
		<rect x="144" y="384" width="16" height="16"/>
	</g>
</g>
<g>
	<g>
		<rect x="32" y="384" width="96" height="16"/>
	</g>
</g>
<g>
	<g>
		<path d="M360,256c-13.232,0-24,10.768-24,24c0,0.328,0.08,0.624,0.096,0.944l-38.16,15.264C293.536,291.216,287.168,288,280,288
			c-7.168,0-13.536,3.216-17.936,8.216l-38.16-15.272c0.016-0.32,0.096-0.616,0.096-0.944c0-13.232-10.768-24-24-24
			s-24,10.768-24,24s10.768,24,24,24c7.168,0,13.536-3.216,17.936-8.216l38.16,15.264C256.08,311.376,256,311.672,256,312
			c0,13.232,10.768,24,24,24s24-10.768,24-24c0-0.328-0.08-0.624-0.096-0.944l38.16-15.264c4.4,4.992,10.768,8.208,17.936,8.208
			c13.232,0,24-10.768,24-24S373.232,256,360,256z M200,288c-4.416,0-8-3.592-8-8c0-4.408,3.584-8,8-8s8,3.592,8,8
			C208,284.408,204.416,288,200,288z M280,320c-4.416,0-8-3.592-8-8c0-4.408,3.584-8,8-8c4.416,0,8,3.592,8,8
			C288,316.408,284.416,320,280,320z M360,288c-4.416,0-8-3.592-8-8c0-4.408,3.584-8,8-8c4.416,0,8,3.592,8,8
			C368,284.408,364.416,288,360,288z"/>
	</g>
</g>
<g>
	<g>
		<rect x="192" y="128" width="16" height="16"/>
	</g>
</g>
<g>
	<g>
		<rect x="80" y="128" width="16" height="16"/>
	</g>
</g>
<g>
</g>
<g>
</g>
<g>
</g>
<g>
</g>
<g>
</g>
<g>
</g>
<g>
</g>
<g>
</g>
<g>
</g>
<g>
</g>
<g>
</g>
<g>
</g>
<g>
</g>
<g>
</g>
<g>
</g>
</svg>
