<?xml version="1.0" encoding="iso-8859-1"?>
<!-- Generator: Adobe Illustrator 19.0.0, SVG Export Plug-In . SVG Version: 6.00 Build 0)  -->
<svg version="1.1" id="Capa_1" xmlns="http://www.w3.org/2000/svg" xmlns:xlink="http://www.w3.org/1999/xlink" x="0px" y="0px"
	 viewBox="0 0 512 512" style="enable-background:new 0 0 512 512;" xml:space="preserve">
<g>
	<g>
		<path d="M347,271c-8.284,0-15,6.716-15,15v56.459l-31.584-63.167c-3.11-6.222-10.093-9.49-16.862-7.89
			C276.783,273,272,279.043,272,286v120c0,8.284,6.716,15,15,15s15-6.716,15-15v-56.459l31.584,63.167
			c3.114,6.229,10.101,9.487,16.862,7.89C357.217,419,362,412.957,362,406V286C362,277.716,355.284,271,347,271z"/>
	</g>
</g>
<g>
	<g>
		<path d="M145.607,395.394l-34.783-34.783C132.894,357.744,150,338.838,150,316c0-24.813-20.187-45-45-45H75
			c-8.284,0-15,6.716-15,15c0,10.156,0,107.94,0,120c0,8.284,6.716,15,15,15s15-6.716,15-15v-23.787l34.394,34.394
			c5.857,5.857,15.355,5.858,21.213,0C151.465,410.749,151.465,401.252,145.607,395.394z M90,331v-30h15c8.271,0,15,6.729,15,15
			s-6.729,15-15,15H90z"/>
	</g>
</g>
<g>
	<g>
		<path d="M241,391h-30v-30h15c8.284,0,15-6.716,15-15s-6.716-15-15-15h-15v-30h30c8.284,0,15-6.716,15-15s-6.716-15-15-15h-45
			c-8.284,0-15,6.716-15,15v120c0,8.284,6.716,15,15,15h45c8.284,0,15-6.716,15-15S249.284,391,241,391z"/>
	</g>
</g>
<g>
	<g>
		<path d="M452,271h-60c-8.284,0-15,6.716-15,15s6.716,15,15,15h15v105c0,8.284,6.716,15,15,15s15-6.716,15-15V301h15
			c8.284,0,15-6.716,15-15S460.284,271,452,271z"/>
	</g>
</g>
<g>
	<g>
		<path d="M467,181h-17.58c1.665-4.695,2.58-9.742,2.58-15c0-24.81-20.181-44.995-44.99-45c-0.003,0-0.006,0-0.01,0h-3.149
			c-7.078,0-13.146-5.335-14.756-12.975C376.133,46.551,320.573,0,256,0c-64.693,0-120.16,46.678-133.095,108.025
			c-1.61,7.639-7.678,12.975-14.756,12.975H105c-0.003,0-0.006,0-0.01,0C80.181,121.005,60,141.19,60,166
			c0,5.258,0.915,10.305,2.58,15H45c-24.813,0-45,20.187-45,45v241c0,24.813,20.187,45,45,45h422c24.813,0,45-20.187,45-45V226
			C512,201.187,491.813,181,467,181z M407,151c8.271,0,15,6.729,15,15s-6.729,15-15,15s-15-6.729-15-15S398.729,151,407,151z
			 M152.261,114.214C162.549,65.417,206.178,30,256,30s93.451,35.417,103.739,84.213c1.939,9.199,6.333,17.212,12.379,23.396
			C365.798,145.359,362,155.243,362,166c0,5.258,0.915,10.305,2.58,15H147.42c1.665-4.695,2.58-9.742,2.58-15
			c0-10.757-3.798-20.641-10.118-28.391C145.928,131.425,150.321,123.412,152.261,114.214z M105,151c8.271,0,15,6.729,15,15
			s-6.729,15-15,15s-15-6.729-15-15S96.729,151,105,151z M482,467c0,8.271-6.729,15-15,15H45c-8.271,0-15-6.729-15-15V226
			c0-8.271,6.729-15,15-15h422c8.271,0,15,6.729,15,15V467z"/>
	</g>
</g>
<g>
</g>
<g>
</g>
<g>
</g>
<g>
</g>
<g>
</g>
<g>
</g>
<g>
</g>
<g>
</g>
<g>
</g>
<g>
</g>
<g>
</g>
<g>
</g>
<g>
</g>
<g>
</g>
<g>
</g>
</svg>
