<svg xmlns="http://www.w3.org/2000/svg" width="19.466" height="19.319" viewBox="0 0 19.466 19.319"><defs><style>.a{fill:#3a3a3a;}</style></defs><g transform="translate(0 -0.181)"><path class="a" d="M13.906,9.09l7.146,1.419a1.2,1.2,0,0,1,.965,1.184v8.273A1.215,1.215,0,0,1,20.8,21.183H13.5a.4.4,0,0,0,.406-.406v-.406H20.8a.407.407,0,0,0,.406-.406V11.694a.407.407,0,0,0-.316-.4L13.906,9.917Z" transform="translate(-2.55 -1.683)"/><path class="a" d="M19.028,14a.406.406,0,1,1,0,.811H17.406a.406.406,0,0,1,0-.811Z" transform="translate(-3.212 -2.611)"/><path class="a" d="M19.028,17a.406.406,0,1,1,0,.811H17.406a.406.406,0,0,1,0-.811Z" transform="translate(-3.212 -3.178)"/><path class="a" d="M19.028,20a.406.406,0,1,1,0,.811H17.406a.406.406,0,0,1,0-.811Z" transform="translate(-3.212 -3.744)"/><path class="a" d="M13.811,20.761a.406.406,0,0,1-.811,0V9.406a.431.431,0,0,1,.146-.316.426.426,0,0,1,.341-.081l.324.065V20.761Z" transform="translate(-2.456 -1.666)"/><path class="a" d="M12.339,23v.406a.4.4,0,0,0,.406.406H9.5a.4.4,0,0,0,.406-.406V23Z" transform="translate(-1.795 -4.311)"/><path class="a" d="M10.028,5a.406.406,0,1,1,0,.811H8.406a.406.406,0,1,1,0-.811Z" transform="translate(-1.511 -0.911)"/><path class="a" d="M10.433,8.406a.4.4,0,0,1-.406.406H8.406a.406.406,0,1,1,0-.811h1.622A.4.4,0,0,1,10.433,8.406Z" transform="translate(-1.511 -1.477)"/><path class="a" d="M10.028,11a.406.406,0,1,1,0,.811H8.406a.406.406,0,1,1,0-.811Z" transform="translate(-1.511 -2.044)"/><path class="a" d="M10.028,14a.406.406,0,1,1,0,.811H8.406a.406.406,0,1,1,0-.811Z" transform="translate(-1.511 -2.611)"/><path class="a" d="M5.433,14.406a.4.4,0,0,1-.406.406H3.406a.406.406,0,0,1,0-.811H5.028A.4.4,0,0,1,5.433,14.406Z" transform="translate(-0.567 -2.611)"/><path class="a" d="M5.028,5a.406.406,0,0,1,0,.811H3.406a.406.406,0,0,1,0-.811Z" transform="translate(-0.567 -0.911)"/><path class="a" d="M5.028,8a.406.406,0,1,1,0,.811H3.406a.406.406,0,1,1,0-.811Z" transform="translate(-0.567 -1.477)"/><path class="a" d="M5.028,11a.406.406,0,1,1,0,.811H3.406a.406.406,0,1,1,0-.811Z" transform="translate(-0.567 -2.044)"/><path class="a" d="M8.055,18.217a.407.407,0,0,0-.406-.406H5.217a.4.4,0,0,0-.406.406v3.65H4v-3.65A1.215,1.215,0,0,1,5.217,17H7.65a1.215,1.215,0,0,1,1.217,1.217v3.65H8.055Z" transform="translate(-0.756 -3.178)"/><path class="a" d="M4.811,23H8.866v.406a.4.4,0,0,1-.406.406H4.406A.4.4,0,0,1,4,23.406V23Z" transform="translate(-0.756 -4.311)"/><path class="a" d="M1.419.2l8.914,1.355a1.212,1.212,0,0,1,1.022,1.2V7.407l-.324-.065a.426.426,0,0,0-.341.081.431.431,0,0,0-.146.316V2.751a.41.41,0,0,0-.341-.406L1.29,1A.225.225,0,0,0,1.217.991a.383.383,0,0,0-.26.1A.388.388,0,0,0,.811,1.4V18.283a.407.407,0,0,0,.406.406H3.244v.406a.4.4,0,0,0,.406.406H1.217A1.215,1.215,0,0,1,0,18.283V1.4A1.194,1.194,0,0,1,.43.472,1.217,1.217,0,0,1,1.419.2Z" transform="translate(0 0)"/></g></svg>