<svg xmlns="http://www.w3.org/2000/svg" width="20.148" height="20.925" viewBox="0 0 20.148 20.925"><defs><style>.a{fill:#3a3a3a;}</style></defs><g transform="translate(-9.495)"><g transform="translate(17.546)"><g transform="translate(0)"><path class="a" d="M209.122,0a2.616,2.616,0,1,0,2.616,2.616A2.619,2.619,0,0,0,209.122,0Zm0,4.577a1.962,1.962,0,1,1,1.962-1.962A1.964,1.964,0,0,1,209.122,4.577Z" transform="translate(-206.506)"/></g></g><g transform="translate(17.546 3.596)"><g transform="translate(0)"><path class="a" d="M211.41,88a.327.327,0,0,0-.327.327,1.962,1.962,0,1,1-3.923,0,.327.327,0,1,0-.654,0,2.616,2.616,0,1,0,5.231,0A.327.327,0,0,0,211.41,88Z" transform="translate(-206.506 -88)"/></g></g><g transform="translate(19.835 1.635)"><g transform="translate(0)"><path class="a" d="M262.833,40a.327.327,0,0,0-.327.327v1.308a.327.327,0,0,0,.654,0V40.327A.327.327,0,0,0,262.833,40Z" transform="translate(-262.506 -40)"/></g></g><g transform="translate(17.546 2.289)"><path class="a" d="M206.833,56a.327.327,0,0,0-.327.327v1.308a.327.327,0,0,0,.654,0V56.327A.327.327,0,0,0,206.833,56Z" transform="translate(-206.506 -56)"/></g><g transform="translate(22.123 2.289)"><path class="a" d="M318.833,56a.327.327,0,0,0-.327.327v1.308a.327.327,0,1,0,.654,0V56.327A.327.327,0,0,0,318.833,56Z" transform="translate(-318.506 -56)"/></g><g transform="translate(9.495 7.52)"><g transform="translate(0)"><path class="a" d="M14.818,184.073a.328.328,0,0,0-.46.048l-4.782,5.885a.327.327,0,1,0,.508.412l4.782-5.885A.327.327,0,0,0,14.818,184.073Z" transform="translate(-9.503 -184)"/></g></g><g transform="translate(14.276 7.52)"><path class="a" d="M131.863,190.01l-4.782-5.885a.327.327,0,0,0-.508.412l4.782,5.885a.327.327,0,1,0,.508-.412Z" transform="translate(-126.5 -184.005)"/></g><g transform="translate(10.026 9.155)"><g transform="translate(0)"><path class="a" d="M27.287,224.076a.328.328,0,0,0-.46.048l-4.25,5.231a.327.327,0,1,0,.508.412l4.25-5.231A.327.327,0,0,0,27.287,224.076Z" transform="translate(-22.503 -224.003)"/></g></g><g transform="translate(14.276 9.155)"><g transform="translate(0)"><path class="a" d="M131.331,229.36l-4.25-5.231a.327.327,0,0,0-.508.412l4.25,5.231a.327.327,0,0,0,.508-.412Z" transform="translate(-126.5 -224.008)"/></g></g><g transform="translate(24.207 7.52)"><path class="a" d="M374.863,190.01l-4.782-5.885a.327.327,0,0,0-.508.412l4.782,5.885a.327.327,0,0,0,.508-.412Z" transform="translate(-369.5 -184.005)"/></g><g transform="translate(14.277 7.52)"><g transform="translate(0)"><path class="a" d="M136.764,184h-9.931a.327.327,0,1,0,0,.654h9.931a.327.327,0,1,0,0-.654Z" transform="translate(-126.506 -184)"/></g></g><g transform="translate(19.058 13.405)"><path class="a" d="M253.764,328h-9.931a.327.327,0,0,0,0,.654h9.931a.327.327,0,1,0,0-.654Z" transform="translate(-243.506 -328)"/></g><g transform="translate(18.527 14.386)"><path class="a" d="M241.3,352H230.833a.327.327,0,1,0,0,.654H241.3a.327.327,0,0,0,0-.654Z" transform="translate(-230.506 -352)"/></g><g transform="translate(28.989 13.405)"><g transform="translate(0)"><path class="a" d="M486.833,328a.327.327,0,0,0-.327.327v.981a.327.327,0,0,0,.654,0v-.981A.327.327,0,0,0,486.833,328Z" transform="translate(-486.506 -328)"/></g></g><g transform="translate(10.68 13.581)"><g transform="translate(0)"><path class="a" d="M38.833,332.3a.327.327,0,0,0-.327.327v6.69a.327.327,0,1,0,.654,0v-6.69A.327.327,0,0,0,38.833,332.3Z" transform="translate(-38.506 -332.304)"/></g></g><g transform="translate(17.873 13.568)"><g transform="translate(0)"><path class="a" d="M214.833,332a.327.327,0,0,0-.327.327v6.7a.327.327,0,1,0,.654,0v-6.7A.327.327,0,0,0,214.833,332Z" transform="translate(-214.506 -332)"/></g></g><g transform="translate(10.68 20.271)"><g transform="translate(0)"><path class="a" d="M56.815,496H38.833a.327.327,0,1,0,0,.654H56.815a.327.327,0,1,0,0-.654Z" transform="translate(-38.506 -496)"/></g></g><g transform="translate(28.662 14.386)"><g transform="translate(0)"><path class="a" d="M478.833,352a.327.327,0,0,0-.327.327v5.885a.327.327,0,0,0,.654,0v-5.885A.327.327,0,0,0,478.833,352Z" transform="translate(-478.506 -352)"/></g></g><g transform="translate(9.495 13.405)"><g transform="translate(0)"><path class="a" d="M10.64,329.16l-.531-.981a.327.327,0,0,0-.574.312l.531.981a.327.327,0,0,0,.288.171.323.323,0,0,0,.155-.04A.326.326,0,0,0,10.64,329.16Z" transform="translate(-9.495 -328.008)"/></g></g><g transform="translate(13.296 16.674)"><path class="a" d="M102.833,408a.327.327,0,0,0-.327.327v3.6a.327.327,0,1,0,.654,0v-3.6A.327.327,0,0,0,102.833,408Z" transform="translate(-102.506 -408)"/></g><g transform="translate(13.296 16.674)"><path class="a" d="M104.795,408h-1.962a.327.327,0,0,0,0,.654h1.962a.327.327,0,0,0,0-.654Z" transform="translate(-102.506 -408)"/></g><g transform="translate(15.257 16.674)"><g transform="translate(0)"><path class="a" d="M150.833,408a.327.327,0,0,0-.327.327v3.6a.327.327,0,1,0,.654,0v-3.6A.327.327,0,0,0,150.833,408Z" transform="translate(-150.506 -408)"/></g></g><g transform="translate(13.296 12.751)"><path class="a" d="M103.814,312a1.308,1.308,0,1,0,1.308,1.308A1.309,1.309,0,0,0,103.814,312Zm0,1.962a.654.654,0,1,1,.654-.654A.655.655,0,0,1,103.814,313.962Z" transform="translate(-102.506 -312)"/></g><g transform="translate(19.508 16.02)"><path class="a" d="M257.775,392h-2.942a.327.327,0,0,0-.327.327v2.289a.327.327,0,0,0,.327.327h2.942a.327.327,0,0,0,.327-.327v-2.289A.327.327,0,0,0,257.775,392Zm-.327,2.289H255.16v-1.635h2.289Z" transform="translate(-254.506 -392)"/></g><g transform="translate(24.085 16.02)"><path class="a" d="M369.775,392h-2.943a.327.327,0,0,0-.327.327v2.289a.327.327,0,0,0,.327.327h2.943a.327.327,0,0,0,.327-.327v-2.289A.327.327,0,0,0,369.775,392Zm-.327,2.289H367.16v-1.635h2.289Z" transform="translate(-366.506 -392)"/></g><g transform="translate(17.873 8.501)"><path class="a" d="M219.737,208h-4.9a.327.327,0,0,0,0,.654h4.9a.327.327,0,0,0,0-.654Z" transform="translate(-214.506 -208)"/></g><g transform="translate(17.076 7.52)"><g transform="translate(0)"><path class="a" d="M196.374,185.106l-.8-.981a.327.327,0,0,0-.508.412l.8.981a.327.327,0,1,0,.508-.412Z" transform="translate(-194.996 -184.005)"/></g></g><g transform="translate(21.98 7.52)"><g transform="translate(0)"><path class="a" d="M316.374,185.106l-.8-.981a.327.327,0,0,0-.508.412l.8.981a.327.327,0,0,0,.508-.412Z" transform="translate(-314.996 -184.005)"/></g></g></g></svg>