<svg id="Capa_1" enable-background="new 0 0 512 512" height="512" viewBox="0 0 512 512" width="512" xmlns="http://www.w3.org/2000/svg"><g id="XMLID_1213_"><g id="XMLID_410_"><path id="XMLID_1206_" d="m497.799 169.854-236-168c-3.472-2.472-8.127-2.472-11.599 0l-236 168c-3.544 2.523-5.05 7.047-3.726 11.19 1.325 4.144 5.176 6.956 9.526 6.956h34v256h-17c-5.523 0-10 4.477-10 10v48c0 5.523 4.477 10 10 10h438c5.523 0 10-4.477 10-10v-48c0-5.523-4.477-10-10-10h-17v-256h34c4.35 0 8.201-2.812 9.525-6.956 1.325-4.143-.182-8.668-3.726-11.19zm-32.799 322.146h-418v-28h418zm-143-48h-132v-200h132zm-21-276c-5.523 0-10 4.477-10 10s4.477 10 10 10h137v256h-96v-210c0-5.523-4.477-10-10-10h-152c-5.523 0-10 4.477-10 10v210h-96v-256h137c5.523 0 10-4.477 10-10s-4.477-10-10-10h-159.709l204.709-145.725 204.709 145.725z"/><path id="XMLID_1230_" d="m227.67 354c2.63 0 5.21-1.07 7.07-2.93s2.93-4.44 2.93-7.07-1.07-5.21-2.93-7.07-4.44-2.93-7.07-2.93c-2.64 0-5.22 1.07-7.07 2.93-1.87 1.86-2.93 4.44-2.93 7.07s1.06 5.21 2.93 7.07c1.86 1.86 4.43 2.93 7.07 2.93z"/><path id="XMLID_1325_" d="m248.93 170.93c-1.86 1.86-2.93 4.44-2.93 7.07s1.07 5.21 2.93 7.07 4.44 2.93 7.07 2.93 5.21-1.07 7.07-2.93 2.93-4.44 2.93-7.07-1.07-5.21-2.93-7.07-4.44-2.93-7.07-2.93-5.21 1.07-7.07 2.93z"/></g></g></svg>