<svg id="Layer_1" enable-background="new 0 0 512 512" height="512" viewBox="0 0 512 512" width="512" xmlns="http://www.w3.org/2000/svg"><circle cx="446" cy="409" r="10"/><path d="m453.07 22.93c-1.86-1.86-4.44-2.93-7.07-2.93h-89v-10c0-5.523-4.477-10-10-10h-180c-5.523 0-10 4.477-10 10v10h-91c-2.63 0-5.21 1.07-7.07 2.93s-2.93 4.44-2.93 7.07v472c0 2.63 1.07 5.21 2.93 7.07s4.44 2.93 7.07 2.93h380c2.63 0 5.21-1.07 7.07-2.93s2.93-4.44 2.93-7.07v-48c0-5.51-4.49-10-10-10s-10 4.49-10 10v38h-360v-452h81v20h-51c-5.523 0-10 4.477-10 10v392c0 5.523 4.477 10 10 10h300c5.523 0 10-4.477 10-10v-392c0-5.523-4.477-10-10-10h-49v-20h79v324c0 5.51 4.49 10 10 10s10-4.49 10-10v-334c0-2.63-1.07-5.21-2.93-7.07zm-276.07-2.93h160v40h-35c-5.51 0-10 4.49-10 10s4.49 10 10 10h5v20h-100v-20h5c5.51 0 10-4.49 10-10s-4.49-10-10-10h-35zm219 432h-280v-372h71v30c0 5.523 4.477 10 10 10h120c5.523 0 10-4.477 10-10v-30h69z"/><path d="m265 160c-5.523 0-10 4.477-10 10s4.477 10 10 10h81c5.523 0 10-4.477 10-10s-4.477-10-10-10z"/><path d="m255 210c0 5.523 4.477 10 10 10h101c5.523 0 10-4.477 10-10s-4.477-10-10-10h-101c-5.523 0-10 4.477-10 10z"/><path d="m146 322h55c5.523 0 10-4.477 10-10s-4.477-10-10-10h-55c-5.523 0-10 4.477-10 10s4.477 10 10 10z"/><path d="m366 302h-120c-5.523 0-10 4.477-10 10s4.477 10 10 10h120c5.523 0 10-4.477 10-10s-4.477-10-10-10z"/><path d="m366 342h-220c-5.523 0-10 4.477-10 10s4.477 10 10 10h220c5.523 0 10-4.477 10-10s-4.477-10-10-10z"/><circle cx="257" cy="70" r="10"/><path d="m146 260h80c5.523 0 10-4.477 10-10v-30c0-13.41-6.64-25.287-16.798-32.545 1.48-3.872 2.298-8.069 2.298-12.455 0-19.299-15.701-35-35-35s-35 15.701-35 35c0 4.176.738 8.183 2.086 11.9-10.603 7.2-17.586 19.346-17.586 33.1v30c0 5.523 4.477 10 10 10zm70-20h-60v-20c0-7.183 3.819-13.475 9.521-17.003 5.85 4.395 13.115 7.003 20.979 7.003 7.661 0 14.751-2.481 20.521-6.673 5.404 3.584 8.979 9.716 8.979 16.673zm-29.5-80c8.271 0 15 6.729 15 15s-6.729 15-15 15-15-6.729-15-15 6.729-15 15-15z"/></svg>