<svg id="Layer_1" height="512" viewBox="0 0 512 512" width="512" xmlns="http://www.w3.org/2000/svg" data-name="Layer 1"><path d="m217.683 325.526a6 6 0 0 0 -7.267 4.382l-1.56 6.3a6 6 0 1 0 11.648 2.884l1.56-6.3a6 6 0 0 0 -4.381-7.266z"/><path d="m231.034 274.817a6 6 0 0 0 -7.327 4.279l-9.14 34.8a6 6 0 1 0 11.606 3.048l9.14-34.8a6 6 0 0 0 -4.279-7.327z"/><path d="m491.251 377.637-19.641-14.361a154.162 154.162 0 0 0 -73.256-28.637l-19.954-2.288a10.082 10.082 0 0 1 -2.928-.8 9.625 9.625 0 0 1 -2.516-1.637 133.026 133.026 0 0 0 -74.693-33.214l-36-3.944 6.161-25.038a6 6 0 0 0 -4.353-7.251l-35.281-8.937 15.313-62.107 7.305 1.661a6 6 0 0 0 5.837-4.608l19.846-83.353.039-.2a31.209 31.209 0 0 0 -22.949-35.9 29.934 29.934 0 0 0 -36.408 21.064l-19.94 83.513a6 6 0 0 0 4.366 7.208l5.248 1.329-15.307 62.104-34.016-8.617a6 6 0 0 0 -7.3 4.382l-20.69 84.08-.03.124c-2.062 9.222-.356 19.573 5.045 30.831l-65.065 31.834-5.566 2.547a122.335 122.335 0 0 0 -36.724 25.669c-3.875 3.955-7.752 8.194-11.2 12.247-3.32 3.878-6.352 7.712-8.77 11.089a6 6 0 0 0 4.876 9.493h.086l460.49-6.589c.081 0 .162 0 .244-.009a33.277 33.277 0 0 0 30.32-24.107 34.043 34.043 0 0 0 -12.589-37.578zm-240.012-298.98a19.393 19.393 0 0 1 14.147 15.512l-33.377-8.462a18 18 0 0 1 19.23-7.05zm-23.3 18.4 36.108 9.154-3.012 12.63-36.108-9.152zm-5.8 24.306 36.107 9.151-3.009 12.617-36.108-9.144zm-5.794 24.3 36.108 9.144-5.477 22.966-36.106-9.145zm2.726 37.422 13.392 3.392-15.303 62.102-13.389-3.392zm273.264 228.715c-2.1 7.084-8.288 14.868-19.359 15.53l-447.776 6.411 11.166-12.25a110.4 110.4 0 0 1 33.142-23.155l5.64-2.58.141-.067 65.777-32.181a139.166 139.166 0 0 0 17.134 21.161c11.663 11.9 14.906 12.129 16.179 12.219h.116c4.689 0 64.9-12.217 73.233-45.057a6 6 0 1 0 -11.632-2.95c-3.117 12.289-18.37 21.213-30.617 26.535a152.771 152.771 0 0 1 -29.487 9.268c-4.639-3.446-18.617-16.524-27.455-31.953-6.172-10.759-8.437-20.128-6.733-27.847l19.231-78.148 94.317 23.893-15.364 62.433a6 6 0 1 0 11.652 2.868l7.734-31.427 37.585 4.118a121.089 121.089 0 0 1 67.978 30.223 21.609 21.609 0 0 0 5.631 3.662 22.084 22.084 0 0 0 6.451 1.761l19.969 2.29a142.136 142.136 0 0 1 67.542 26.4l19.64 14.36c9.344 6.841 10.345 17.133 8.165 24.483z"/><path d="m93.64 411.88h-27.38a6 6 0 0 0 0 12h27.38a6 6 0 0 0 0-12z"/><path d="m138.67 384.3h-11.38a6 6 0 0 0 0 12h11.38a6 6 0 1 0 0-12z"/><path d="m195.54 411.88h-17.32a6 6 0 0 0 0 12h17.32a6 6 0 0 0 0-12z"/><path d="m294.75 390.12h-4.87a6 6 0 0 0 0 12h4.87a6 6 0 0 0 0-12z"/><path d="m304.86 358.4h-14.98a6 6 0 0 0 0 12h14.98a6 6 0 0 0 0-12z"/><path d="m341.406 352.276a6 6 0 1 0 11.594-3.112l-1.631-6.07a6 6 0 1 0 -11.589 3.112z"/><path d="m352.25 404.72h-9.47a6 6 0 0 0 0 12h9.47a6 6 0 0 0 0-12z"/><path d="m479.27 401.31h-5.06a6 6 0 0 0 0 12h5.06a6 6 0 0 0 0-12z"/><path d="m447.89 374.84h-9.74a6 6 0 0 0 0 12h9.74a6 6 0 0 0 0-12z"/><path d="m398.488 359.708a6 6 0 0 0 -7.369-4.206l-11.381 3.11a6 6 0 1 0 3.163 11.576l11.381-3.11a6 6 0 0 0 4.206-7.37z"/><path d="m138.67 404.72a6 6 0 0 0 -6 6v7.16a6 6 0 0 0 12 0v-7.16a6 6 0 0 0 -6-6z"/><path d="m292.316 336.771a6 6 0 0 0 2.487-11.463l-14.65-6.66a6 6 0 1 0 -4.966 10.924l14.649 6.66a5.985 5.985 0 0 0 2.48.539z"/><path d="m251.779 398.461-11-3a6 6 0 0 0 -3.157 11.578l11 3a6 6 0 0 0 3.157-11.578z"/><path d="m404.7 390.12h-12a6 6 0 1 0 0 12h12a6 6 0 0 0 0-12z"/></svg>