<svg id="Capa_1" enable-background="new 0 0 512 512" height="512" viewBox="0 0 512 512" width="512" xmlns="http://www.w3.org/2000/svg"><path d="m441.714 122.748c-18.567-42.199-61.908-66.283-103.84-62.354-24.978-37.497-66.956-60.394-111.874-60.394-57.5 0-108.112 36.544-126.949 90.223-55.224 3.555-99.051 49.191-99.051 104.777 0 57.897 47.551 105 106 105h15v212h255c0-4.241 0-184.815 0-212h45c49.921 0 91-40.428 91-90 0-41.708-29.638-77.757-70.286-87.252zm-290.714 207.252h45v30h-45zm75 30v-30h45v30zm45 30v30h-45v-30zm-120 0h45v30h-45zm0 92v-32h45v32zm75 0v-32h45v32zm120 0h-45c0-20.12 0-71.035 0-92h45zm0-122h-45v-30h45zm-195-60c0-11.007 0-80.336 0-90h195v90c-132.692 0-45.302 0-195 0zm270-30h-45v-90h-255v90h-15c-41.907 0-76-33.645-76-75 0-41.116 34.192-76.677 79.426-74.6l12.203.561 3.02-11.837c11.884-46.587 53.561-79.124 101.351-79.124 37.522 0 72.447 20.668 91.144 53.94l5.216 9.283 10.484-1.863c38.286-6.804 72.274 15.952 83.759 49.487l3.013 8.795 9.217 1.216c30.31 3.997 53.167 29.423 53.167 59.142 0 33.084-27.364 60-61 60z"/></svg>