<svg xmlns="http://www.w3.org/2000/svg" width="21" height="26.066" viewBox="0 0 21 26.066"><defs><style>.a{fill:#3a3a3a;}</style></defs><g transform="translate(-31.5 -23.638)"><path class="a" d="M52.14,32.571l-5.255-2.035a5.179,5.179,0,1,0-9.77,0L31.86,32.571a.565.565,0,0,0-.36.527V45.287a.565.565,0,0,0,.361.527L41.8,49.666a.568.568,0,0,0,.2.038.56.56,0,0,0,.2-.042l0,0,9.936-3.851a.565.565,0,0,0,.36-.527V33.1a.565.565,0,0,0-.36-.527Zm-1.769.527-1.834.711-3.04-1.17a5.206,5.206,0,0,0,.9-1.082Zm-5.986.325,2.585.994-1.459.565-2.677-1.046A5.144,5.144,0,0,0,44.386,33.423Zm1.759,2.526,1.9-.736v2.356l-.318-.207a.566.566,0,0,0-.72.086l-.861.914ZM42,24.783a4.048,4.048,0,1,1-4.048,4.048A4.048,4.048,0,0,1,42,24.783ZM37.929,32.02l-.757-.3.433-.168a5.189,5.189,0,0,0,.323.465Zm-2.316.309,8.337,3.259L42,36.343,33.629,33.1ZM32.631,44.9V33.924l8.8,3.413V48.313Zm9.935,3.413V37.337l2.449-.95v3.4a.565.565,0,0,0,.357.525.559.559,0,0,0,.208.04.565.565,0,0,0,.412-.178L47.5,38.567l.8.517a.565.565,0,0,0,.872-.474V34.775l2.2-.851V44.9Z" transform="translate(0 0)"/><path class="a" d="M57.408,37.584a.565.565,0,0,0,.743-.011l2.742-2.464a.565.565,0,1,0-.756-.84L57.762,36.4l-1.082-.914a.565.565,0,1,0-.73.864Z" transform="translate(-16.415 -7.089)"/></g></svg>