<svg id="Capa_1" enable-background="new 0 0 512 512" height="512" viewBox="0 0 512 512" width="512" xmlns="http://www.w3.org/2000/svg"><g><path d="m280.786 365.35 11.857-7.114v54.907h68.857v-36.643h30v36.643h68.857v-54.907l11.857 7.114 15.435-25.725-111.149-66.689-111.149 66.689z"/><path d="m51.643 358.236v54.907h68.857v-36.643h30v36.643h68.857v-54.907l11.857 7.114 15.435-25.725-111.149-66.689-111.149 66.689 15.435 25.725z"/><path d="m0 443.143h512v68.857h-512z"/><path d="m256 285.806s115.472-87.666 115.472-170.334c0-63.773-51.699-115.472-115.472-115.472s-115.472 51.699-115.472 115.472c0 82.668 115.472 170.334 115.472 170.334zm-61.628-167.737c0-33.982 27.646-61.628 61.628-61.628 33.981 0 61.628 27.646 61.628 61.628s-27.647 61.628-61.628 61.628c-33.982 0-61.628-27.646-61.628-61.628z"/><ellipse cx="256" cy="118.069" rx="31.628" ry="31.628" transform="matrix(.51 -.86 .86 .51 23.884 278.065)"/></g></svg>