<svg height="480pt" viewBox="0 0 480 480" width="480pt" xmlns="http://www.w3.org/2000/svg"><path d="m16 224h176v-16h-176v-32h176v-16h-176v-32h176v-16h-192v368h320v-224h-304zm0 240v-144h288v144zm288-192v32h-288v-32zm0 0"/><path d="m160 368c-13.601562 0-24 10.398438-24 24s10.398438 24 24 24 24-10.398438 24-24-10.398438-24-24-24zm0 32c-4.800781 0-8-3.199219-8-8s3.199219-8 8-8 8 3.199219 8 8-3.199219 8-8 8zm0 0"/><path d="m272 336h-224v16h-16v80h16v16h224v-16h16v-80h-16zm0 80c-8.800781 0-16 7.199219-16 16h-192c0-8.800781-7.199219-16-16-16v-48c8.800781 0 16-7.199219 16-16h192c0 8.800781 7.199219 16 16 16zm0 0"/><path d="m424 208c13.601562 0 24-10.398438 24-24v-160c0-13.601562-10.398438-24-24-24h-192c-13.601562 0-24 10.398438-24 24v160c0 13.601562 10.398438 24 24 24h68l28 37.601562 28-37.601562zm-96 10.398438-20-26.398438h-76c-4.800781 0-8-3.199219-8-8v-160c0-4.800781 3.199219-8 8-8h192c4.800781 0 8 3.199219 8 8v160c0 4.800781-3.199219 8-8 8h-76zm0 0"/><path d="m408 248c-36 0-72 11.199219-72 32v168c0 20.800781 36 32 72 32s72-11.199219 72-32v-168c0-20.800781-36-32-72-32zm0 216c-36 0-56-11.199219-56-16v-19.199219c17.601562 8 36.800781 12 56 11.199219 19.199219.800781 38.398438-3.199219 56-11.199219v19.199219c0 4.800781-20 16-56 16zm0-40c-36 0-56-11.199219-56-16v-19.199219c17.601562 8 36.800781 12 56 11.199219 19.199219.800781 38.398438-3.199219 56-11.199219v19.199219c0 4.800781-20 16-56 16zm0-40c-36 0-56-11.199219-56-16v-19.199219c17.601562 8 36.800781 12 56 11.199219 19.199219.800781 38.398438-3.199219 56-11.199219v19.199219c0 4.800781-20 16-56 16zm0-40c-36 0-56-11.199219-56-16v-19.199219c17.601562 8 36.800781 12 56 11.199219 19.199219.800781 38.398438-3.199219 56-11.199219v19.199219c0 4.800781-20 16-56 16zm0-40c-36 0-56-11.199219-56-16v-8c0-4.800781 20-16 56-16s56 11.199219 56 16v8c0 4.800781-20 16-56 16zm0 0"/><path d="m200 384h40v16h-40zm0 0"/><path d="m80 384h40v16h-40zm0 0"/><path d="m368 48h-8v-16h-16v16h-32v-16h-16v16h-8c-13.601562 0-24 10.398438-24 24v80c0 13.601562 10.398438 24 24 24h80c13.601562 0 24-10.398438 24-24v-80c0-13.601562-10.398438-24-24-24zm-80 16h8v16h16v-16h32v16h16v-16h8c4.800781 0 8 3.199219 8 8v24h-96v-24c0-4.800781 3.199219-8 8-8zm80 96h-80c-4.800781 0-8-3.199219-8-8v-40h96v40c0 4.800781-3.199219 8-8 8zm0 0"/><path d="m136 0h16v16h-16zm0 0"/><path d="m120 16h16v16h-16zm0 0"/><path d="m136 32h16v16h-16zm0 0"/><path d="m152 16h16v16h-16zm0 0"/><path d="m72 48h16v16h-16zm0 0"/><path d="m56 64h16v16h-16zm0 0"/><path d="m72 80h16v16h-16zm0 0"/><path d="m88 64h16v16h-16zm0 0"/></svg>