<?xml version="1.0" encoding="iso-8859-1"?>
<!-- Generator: Adobe Illustrator 19.0.0, SVG Export Plug-In . SVG Version: 6.00 Build 0)  -->
<svg version="1.1" id="Capa_1" xmlns="http://www.w3.org/2000/svg" xmlns:xlink="http://www.w3.org/1999/xlink" x="0px" y="0px"
	 viewBox="0 0 512 512" style="enable-background:new 0 0 512 512;" xml:space="preserve">
<g>
	<g>
		<g>
			<path d="M469.333,153.6h-153.6V17.067C315.721,7.646,308.087,0.012,298.667,0h-85.333c-9.421,0.012-17.054,7.646-17.067,17.067
				V153.6h-153.6C19.114,153.628,0.028,172.714,0,196.267v273.067C0.028,492.886,19.114,511.972,42.667,512h426.667
				c23.553-0.028,42.639-19.114,42.667-42.667V196.267C511.972,172.714,492.886,153.628,469.333,153.6z M213.333,17.067h85.333
				l0.014,144.996l-0.014,0.07l0.014,0.07l0.003,25.53h-85.35V17.067z M494.933,469.333c-0.015,14.132-11.468,25.585-25.6,25.6
				H42.667c-14.132-0.015-25.585-11.468-25.6-25.6v-230.4h477.867V469.333z M494.933,221.867H17.067v-25.6
				c0.015-14.132,11.468-25.585,25.6-25.6h153.6v17.067c0.012,9.421,7.646,17.054,17.067,17.067h85.333
				c9.421-0.012,17.054-7.646,17.067-17.067v-17.067h153.6c14.132,0.015,25.585,11.468,25.6,25.6V221.867z"/>
			<path d="M59.733,460.8h136.533c9.421-0.012,17.054-7.646,17.067-17.067v-153.6c-0.012-9.421-7.646-17.054-17.067-17.067H59.733
				c-9.421,0.012-17.054,7.646-17.067,17.067v153.6C42.679,453.154,50.313,460.788,59.733,460.8z M95.344,443.733l14.015-7.983
				c3.367-2.105,5.414-5.795,5.417-9.767v-9.217c-0.029-2.476-0.821-4.882-2.267-6.892c-3.181-3.896-5.492-8.428-6.775-13.292
				c-0.781-3.894-2.739-7.454-5.608-10.2c-0.491-0.431-0.781-1.047-0.8-1.7v-10.5c0-0.4,0.092-0.792,0.075-0.792h-0.009l0.917-1.617
				c1.364-2.722,2.08-5.722,2.092-8.767V347.9c0.353-8.661,7.637-15.409,16.3-15.1h18.6c8.663-0.309,15.947,6.439,16.3,15.1v15.108
				c0.03,3.205,0.828,6.357,2.325,9.192l0.442,0.75c0.199,0.381,0.305,0.804,0.308,1.233v10.5c-0.012,0.626-0.28,1.219-0.742,1.642
				c-2.864,2.713-4.829,6.238-5.633,10.1c-1.348,5.103-3.784,9.853-7.142,13.925c-1.262,1.902-1.934,4.134-1.933,6.417v9.217
				c0.037,4.105,2.222,7.891,5.758,9.975l13.661,7.774H95.344z M59.733,290.133h136.533l0.017,153.6h-2.119
				c-1.328-1.118-2.752-2.116-4.256-2.983l-31.617-17.983v-4.2c4.148-5.556,7.112-11.903,8.708-18.65
				c0.106-0.473,0.353-0.903,0.708-1.233c3.847-3.641,6.029-8.703,6.033-14v-10.5c-0.017-3.235-0.817-6.417-2.333-9.275l-0.45-0.767
				c-0.184-0.35-0.284-0.738-0.291-1.134V347.9c-0.358-18.085-15.281-32.471-33.367-32.167h-18.6
				c-18.086-0.304-33.008,14.082-33.367,32.167v15.108c0,0.333-0.092,0.708-0.067,0.708h0.008l-0.925,1.633
				c-1.377,2.741-2.094,5.766-2.092,8.833v10.5c0.011,5.325,2.214,10.41,6.092,14.058c0.36,0.363,0.599,0.829,0.683,1.333
				c1.589,6.695,4.543,12.99,8.675,18.492v4.192L66.1,440.75c-1.507,0.866-2.934,1.865-4.264,2.983h-2.103V290.133z"/>
			<path d="M273.067,401.067c-2.264-0.001-4.435,0.897-6.035,2.498c-1.601,1.601-2.499,3.772-2.498,6.035v42.667
				c0,4.713,3.821,8.533,8.533,8.533c4.713,0,8.533-3.821,8.533-8.533V409.6c0.001-2.264-0.897-4.435-2.498-6.035
				C277.501,401.964,275.33,401.065,273.067,401.067z"/>
			<path d="M307.2,401.067c-2.264-0.001-4.435,0.897-6.035,2.498c-1.601,1.601-2.499,3.772-2.498,6.035v42.667
				c0,4.713,3.82,8.533,8.533,8.533s8.533-3.821,8.533-8.533V409.6c0.001-2.264-0.897-4.435-2.498-6.035
				C311.635,401.964,309.464,401.065,307.2,401.067z"/>
			<path d="M341.333,401.067c-2.264-0.001-4.435,0.897-6.035,2.498c-1.601,1.601-2.499,3.772-2.498,6.035v42.667
				c0,4.713,3.821,8.533,8.533,8.533s8.533-3.821,8.533-8.533V409.6c0.001-2.264-0.897-4.435-2.498-6.035
				C345.768,401.964,343.597,401.065,341.333,401.067z"/>
			<path d="M375.467,401.067c-2.264-0.001-4.435,0.897-6.035,2.498c-1.601,1.601-2.499,3.772-2.498,6.035v42.667
				c0,4.713,3.82,8.533,8.533,8.533s8.533-3.821,8.533-8.533V409.6c0.001-2.264-0.897-4.435-2.498-6.035
				C379.901,401.964,377.73,401.065,375.467,401.067z"/>
			<path d="M409.6,401.067c-2.264-0.001-4.435,0.897-6.035,2.498c-1.601,1.601-2.499,3.772-2.498,6.035v42.667
				c0,4.713,3.82,8.533,8.533,8.533s8.533-3.821,8.533-8.533V409.6c0.001-2.264-0.897-4.435-2.498-6.035
				C414.035,401.964,411.864,401.065,409.6,401.067z"/>
			<path d="M443.733,401.067c-2.264-0.001-4.435,0.897-6.035,2.498c-1.601,1.601-2.499,3.772-2.498,6.035v42.667
				c0,4.713,3.82,8.533,8.533,8.533s8.533-3.821,8.533-8.533V409.6c0.001-2.264-0.897-4.435-2.498-6.035
				C448.168,401.964,445.997,401.065,443.733,401.067z"/>
			<path d="M264.533,298.667H384c4.713,0,8.533-3.82,8.533-8.533s-3.82-8.533-8.533-8.533H264.533c-4.713,0-8.533,3.82-8.533,8.533
				S259.82,298.667,264.533,298.667z"/>
			<path d="M418.133,298.667h25.6c4.713,0,8.533-3.82,8.533-8.533s-3.82-8.533-8.533-8.533h-25.6c-4.713,0-8.533,3.82-8.533,8.533
				S413.421,298.667,418.133,298.667z"/>
			<path d="M443.733,315.725H324.267c-4.713,0-8.533,3.821-8.533,8.533s3.82,8.533,8.533,8.533h119.467
				c4.713,0,8.533-3.82,8.533-8.533S448.446,315.725,443.733,315.725z"/>
			<path d="M264.533,332.792h25.6c4.713,0,8.533-3.82,8.533-8.533s-3.82-8.533-8.533-8.533h-25.6c-4.713,0-8.533,3.821-8.533,8.533
				S259.82,332.792,264.533,332.792z"/>
			<path d="M264.533,366.933h76.8c4.713,0,8.533-3.82,8.533-8.533s-3.82-8.533-8.533-8.533h-76.8c-4.713,0-8.533,3.82-8.533,8.533
				S259.82,366.933,264.533,366.933z"/>
			<path d="M256,119.467c-14.138,0-25.6,11.461-25.6,25.6c0.015,14.132,11.468,25.585,25.6,25.6c14.138,0,25.6-11.462,25.6-25.6
				S270.138,119.467,256,119.467z M256,153.6c-4.713,0-8.533-3.821-8.533-8.533c0.003-4.711,3.822-8.53,8.533-8.533
				c4.713,0,8.533,3.82,8.533,8.533S260.713,153.6,256,153.6z"/>
		</g>
	</g>
</g>
<g>
</g>
<g>
</g>
<g>
</g>
<g>
</g>
<g>
</g>
<g>
</g>
<g>
</g>
<g>
</g>
<g>
</g>
<g>
</g>
<g>
</g>
<g>
</g>
<g>
</g>
<g>
</g>
<g>
</g>
</svg>
