<svg height="512" viewBox="0 0 512 512" width="512" xmlns="http://www.w3.org/2000/svg"><g id="Outline"><path d="m472 48h-24v-8a24 24 0 0 0 -48 0v8h-64v-8a24 24 0 0 0 -48 0v8h-64v-8a24 24 0 0 0 -48 0v8h-64v-8a24 24 0 0 0 -48 0v8h-24a24.028 24.028 0 0 0 -24 24v400a24.028 24.028 0 0 0 24 24h432a24.028 24.028 0 0 0 24-24v-400a24.028 24.028 0 0 0 -24-24zm-56-8a8 8 0 0 1 16 0v32a8 8 0 0 1 -16 0zm-112 0a8 8 0 0 1 16 0v32a8 8 0 0 1 -16 0zm-112 0a8 8 0 0 1 16 0v32a8 8 0 0 1 -16 0zm-112 0a8 8 0 0 1 16 0v32a8 8 0 0 1 -16 0zm-48 32a8.009 8.009 0 0 1 8-8h24v8a24 24 0 0 0 48 0v-8h64v8a24 24 0 0 0 48 0v-8h64v8a24 24 0 0 0 48 0v-8h64v8a24 24 0 0 0 48 0v-8h24a8.009 8.009 0 0 1 8 8v56h-448zm448 400a8.009 8.009 0 0 1 -8 8h-432a8.009 8.009 0 0 1 -8-8v-328h448z"/><path d="m104 432h304a32.036 32.036 0 0 0 32-32v-176a32.036 32.036 0 0 0 -32-32h-304a32.036 32.036 0 0 0 -32 32v176a32.036 32.036 0 0 0 32 32zm-16-208a16.019 16.019 0 0 1 16-16h304a16.019 16.019 0 0 1 16 16v176a16.019 16.019 0 0 1 -16 16h-304a16.019 16.019 0 0 1 -16-16z"/><path d="m120 296h72a8 8 0 0 0 8-8v-48a8 8 0 0 0 -8-8h-72a8 8 0 0 0 -8 8v48a8 8 0 0 0 8 8zm8-48h56v32h-56z"/><path d="m320 376h80v16h-80z"/><path d="m352 328h48v16h-48z"/><path d="m272 328h48v16h-48z"/><path d="m192 328h48v16h-48z"/><path d="m112 328h48v16h-48z"/><path d="m112 376h48v16h-48z"/><path d="m176 376h48v16h-48z"/></g></svg>