<svg id="Capa_1" enable-background="new 0 0 512 512" height="512" viewBox="0 0 512 512" width="512" xmlns="http://www.w3.org/2000/svg"><g><path d="m431 0h-350c-27.57 0-50 22.43-50 50v352c0 27.57 22.43 50 50 50h70v45c0 8.284 6.716 15 15 15h180c8.284 0 15-6.716 15-15v-45h70c27.57 0 50-22.43 50-50v-352c0-27.57-22.43-50-50-50zm-80 125c0 52.383-42.617 95-95 95s-95-42.617-95-95 42.617-95 95-95 95 42.617 95 95zm-70 210c0 13.785-11.215 25-25 25s-25-11.215-25-25 11.215-25 25-25 25 11.215 25 25zm-25 55c30.327 0 55-24.673 55-55 0-9-2.187-17.493-6.035-25h26.035v113.509c-29.344 5.98-52.51 29.147-58.491 58.491h-33.019c-5.98-29.344-29.147-52.51-58.491-58.491v-113.509h26.035c-3.848 7.507-6.035 16-6.035 25 .001 30.327 24.674 55 55.001 55zm135-80v30h-30v-30zm-240 30h-30v-30h30zm30 142v-27.43c12.768 4.526 22.903 14.662 27.43 27.43zm150 0h-27.43c4.526-12.768 14.662-22.903 27.43-27.43zm120-80c0 11.028-8.972 20-20 20h-70v-52h45c8.284 0 15-6.716 15-15v-60c0-8.284-6.716-15-15-15h-300c-8.284 0-15 6.716-15 15v60c0 8.284 6.716 15 15 15h45v52h-70c-11.028 0-20-8.972-20-20v-352c0-11.028 8.972-20 20-20h93.855c-26.823 22.944-43.855 57.019-43.855 95 0 68.925 56.075 125 125 125s125-56.075 125-125c0-37.981-17.032-72.056-43.855-95h93.855c11.028 0 20 8.972 20 20z"/><path d="m234.86 195c8.284 0 15-6.716 15-15v-32.862c5.827-.029 11.994-.054 15.629-.054 25.723 0 46.65-20.654 46.65-46.042s-20.927-46.042-46.65-46.042h-30.629c-3.986 0-7.809 1.587-10.623 4.41-2.803 2.812-4.375 6.621-4.375 10.59h-.002v110c0 8.284 6.716 15 15 15zm30.629-110c9.025 0 16.65 7.347 16.65 16.042s-7.625 16.042-16.65 16.042c-3.624 0-9.71.025-15.497.054-.029-6.01-.056-12.379-.056-16.096 0-3.185-.016-9.757-.032-16.042z"/><path d="m406 220h-25c-8.284 0-15 6.716-15 15s6.716 15 15 15h25c8.284 0 15-6.716 15-15s-6.716-15-15-15z"/><path d="m131 220h-25c-8.284 0-15 6.716-15 15s6.716 15 15 15h25c8.284 0 15-6.716 15-15s-6.716-15-15-15z"/></g></svg>