<svg id="Capa_1" enable-background="new 0 0 512 512" height="512" viewBox="0 0 512 512" width="512" xmlns="http://www.w3.org/2000/svg"><g><path d="m464.5 7.5h-315.5c-4.142 0-7.5 3.357-7.5 7.5s3.358 7.5 7.5 7.5h315.5c17.92 0 32.5 14.579 32.5 32.5v284.117c-3.952-2.107-8.458-3.306-13.241-3.306h-2.259v-29.811-147.5c0-4.143-3.358-7.5-7.5-7.5s-7.5 3.357-7.5 7.5v107.691c-11.098-12.668-27.375-20.691-45.5-20.691-33.36 0-60.5 27.141-60.5 60.5v29.811h-2.259c-12.592 0-23.282 8.286-26.914 19.689h-273.327c-6.893 0-12.5-5.607-12.5-12.5v-278c0-6.893 5.607-12.5 12.5-12.5h396c6.893 0 12.5 5.607 12.5 12.5v58.5c0 4.143 3.358 7.5 7.5 7.5s7.5-3.357 7.5-7.5v-58.5c0-15.163-12.336-27.5-27.5-27.5h-396c-15.164 0-27.5 12.337-27.5 27.5v278c0 15.163 12.336 27.5 27.5 27.5h272v15h-282.5c-17.92 0-32.5-14.579-32.5-32.5v-298c0-17.921 14.58-32.5 32.5-32.5h66.5c4.142 0 7.5-3.357 7.5-7.5s-3.358-7.5-7.5-7.5h-66.5c-26.191 0-47.5 21.309-47.5 47.5v298c0 26.191 21.309 47.5 47.5 47.5h111.833l-17.333 32.5h-16.5c-15.715 0-28.5 12.785-28.5 28.5s12.785 28.5 28.5 28.5h208.081c4.835 8.642 14.074 14.5 24.66 14.5h125.519c15.572 0 28.241-12.669 28.241-28.24v-421.26c-.001-26.191-21.31-47.5-47.501-47.5zm-89 298.5c0-25.089 20.411-45.5 45.5-45.5s45.5 20.411 45.5 45.5v29.811h-15v-29.811c0-16.817-13.682-30.5-30.5-30.5s-30.5 13.683-30.5 30.5v29.811h-15zm61 29.811h-31v-29.811c0-8.547 6.953-15.5 15.5-15.5s15.5 6.953 15.5 15.5zm-324.5 125.689c0-7.444 6.056-13.5 13.5-13.5h177c4.142 0 7.5-3.357 7.5-7.5s-3.358-7.5-7.5-7.5h-143.5l17.333-32.5h153.667v74.5h-204.5c-7.444 0-13.5-6.056-13.5-13.5zm385 14.76c0 7.301-5.94 13.24-13.241 13.24h-125.518c-7.301 0-13.241-5.939-13.241-13.24v-112.209c0-7.301 5.94-13.24 13.241-13.24h125.519c7.301 0 13.241 5.939 13.241 13.24v112.209z"/><path d="m201 228.017h198c15.164 0 27.5-12.337 27.5-27.5v-54c0-15.163-12.336-27.5-27.5-27.5h-286c-15.164 0-27.5 12.337-27.5 27.5v54c0 15.163 12.336 27.5 27.5 27.5h53c4.142 0 7.5-3.357 7.5-7.5s-3.358-7.5-7.5-7.5h-53c-6.893 0-12.5-5.607-12.5-12.5v-54c0-6.893 5.607-12.5 12.5-12.5h286c6.893 0 12.5 5.607 12.5 12.5v54c0 6.893-5.607 12.5-12.5 12.5h-198c-4.142 0-7.5 3.357-7.5 7.5s3.358 7.5 7.5 7.5z"/><path d="m170.917 159.096c-2.043-3.604-6.621-4.869-10.223-2.826l-6.828 3.87c0-1.386 0-5.672 0-7.123 0-4.143-3.358-7.5-7.5-7.5s-7.5 3.357-7.5 7.5v6.895l-6.565-3.86c-3.569-2.099-8.167-.907-10.267 2.663-2.099 3.571-.907 8.168 2.664 10.267l6.661 3.916-5.852 3.317c-6.7 3.497-3.689 14.307 3.705 14.025 2.66.275 7.367-3.241 9.654-4.356v8.133c0 4.143 3.358 7.5 7.5 7.5s7.5-3.357 7.5-7.5c0-1.829 0-6.103 0-7.886 2.322 1.186 6.759 4.656 9.493 4.387 2.571 0 5.075-1.323 6.472-3.699 2.099-3.571.907-8.168-2.664-10.267l-5.811-3.417 6.734-3.817c3.604-2.042 4.869-6.619 2.827-10.222z"/><path d="m225.866 153.017c0-4.143-3.358-7.5-7.5-7.5s-7.5 3.357-7.5 7.5v6.895l-6.565-3.86c-3.57-2.099-8.167-.907-10.267 2.663-2.099 3.571-.907 8.168 2.664 10.267l6.661 3.916-5.852 3.317c-6.7 3.497-3.689 14.307 3.705 14.025 2.66.275 7.367-3.241 9.654-4.356v8.133c0 4.143 3.358 7.5 7.5 7.5s7.5-3.357 7.5-7.5c0-1.829 0-6.103 0-7.886 2.322 1.186 6.759 4.656 9.493 4.387 2.571 0 5.075-1.323 6.472-3.699 2.099-3.571.907-8.168-2.664-10.267l-5.811-3.417 6.734-3.817c3.604-2.042 4.869-6.619 2.827-10.223-2.043-3.604-6.622-4.869-10.223-2.826l-6.828 3.87c0-1.386 0-5.671 0-7.122z"/><path d="m297.866 153.017c0-4.143-3.358-7.5-7.5-7.5s-7.5 3.357-7.5 7.5v6.895l-6.565-3.86c-3.569-2.099-8.167-.907-10.267 2.663-2.099 3.571-.907 8.168 2.664 10.267l6.661 3.916-5.852 3.317c-3.604 2.042-4.869 6.619-2.827 10.223 1.381 2.436 3.919 3.803 6.532 3.803 2.66.275 7.367-3.241 9.654-4.356v8.133c0 4.143 3.358 7.5 7.5 7.5s7.5-3.357 7.5-7.5c0-1.829 0-6.103 0-7.886 2.322 1.186 6.759 4.656 9.493 4.387 2.571 0 5.075-1.323 6.472-3.699 2.099-3.571.907-8.168-2.664-10.267l-5.811-3.417 6.734-3.817c3.604-2.042 4.869-6.619 2.827-10.223-2.043-3.604-6.621-4.869-10.223-2.826l-6.828 3.87c0-1.387 0-5.672 0-7.123z"/><path d="m380.5 201.017c4.142 0 7.5-3.357 7.5-7.5s-3.358-7.5-7.5-7.5h-39c-4.142 0-7.5 3.357-7.5 7.5s3.358 7.5 7.5 7.5z"/><path d="m421 383.5c-14.612 0-26.5 11.888-26.5 26.5 0 12.008 8.03 22.169 19 25.413v13.243c0 4.143 3.358 7.5 7.5 7.5s7.5-3.357 7.5-7.5v-13.243c10.97-3.244 19-13.405 19-25.413 0-14.612-11.888-26.5-26.5-26.5zm0 38c-6.341 0-11.5-5.159-11.5-11.5s5.159-11.5 11.5-11.5 11.5 5.159 11.5 11.5-5.159 11.5-11.5 11.5z"/></g></svg>