<svg id="Layer_1" enable-background="new 0 0 512 512" height="512" viewBox="0 0 512 512" width="512" xmlns="http://www.w3.org/2000/svg"><g><path d="m474.5 437h-52.5v-22.5c0-4.142-3.357-7.5-7.5-7.5h-377c-4.143 0-7.5 3.358-7.5 7.5v30c0 4.142 3.357 7.5 7.5 7.5h52.5v15h-22.5c-4.143 0-7.5 3.358-7.5 7.5v30c0 4.142 3.357 7.5 7.5 7.5h377c4.143 0 7.5-3.358 7.5-7.5v-22.5h22.5c4.143 0 7.5-3.358 7.5-7.5v-30c0-4.142-3.357-7.5-7.5-7.5zm-429.5-15h362v15h-362zm392 75h-362v-15h362zm30-30h-362v-15h362z"/><path d="m256 392c108.075 0 196-87.925 196-196s-87.925-196-196-196-196 87.925-196 196 87.925 196 196 196zm0-377c99.804 0 181 81.196 181 181s-81.196 181-181 181-181-81.196-181-181 81.196-181 181-181z"/><path d="m362 196c0-58.449-47.552-106-106-106s-106 47.551-106 106 47.552 106 106 106 106-47.551 106-106zm-197 0c0-50.178 40.822-91 91-91s91 40.822 91 91-40.822 91-91 91-91-40.822-91-91z"/><path d="m286 241v-90c0-16.542-13.458-30-30-30s-30 13.458-30 30v90c0 16.542 13.458 30 30 30s30-13.458 30-30zm-45 0v-90c0-8.271 6.729-15 15-15s15 6.729 15 15v90c0 8.271-6.729 15-15 15s-15-6.729-15-15z"/><path d="m256 362c91.532 0 166-74.467 166-166s-74.468-166-166-166c-38.543 0-76.099 13.509-105.75 38.04-3.191 2.641-3.638 7.368-.997 10.56 2.639 3.191 7.367 3.639 10.56.998 26.966-22.311 61.126-34.598 96.187-34.598 83.262 0 151 67.738 151 151s-67.738 151-151 151-151-67.738-151-151c0-35.061 12.287-69.22 34.597-96.188 2.641-3.191 2.194-7.919-.997-10.56-3.19-2.639-7.919-2.194-10.56.998-24.53 29.651-38.04 67.207-38.04 105.75 0 91.533 74.468 166 166 166z"/></g></svg>