<svg id="line_icons" height="512" viewBox="0 0 74 74" width="512" xmlns="http://www.w3.org/2000/svg" data-name="line icons"><path d="m66.956 72h-59.912a4.506 4.506 0 0 1 -4.5-4.5v-56.745a4.518 4.518 0 0 1 4.513-4.513h5.364a1 1 0 0 1 1 1v5.2h4.179v-5.2a1 1 0 0 1 1-1h34.546a1 1 0 0 1 1 1v5.2h4.174v-5.2a1 1 0 0 1 1-1h7.636a4.506 4.506 0 0 1 4.5 4.5v56.758a4.506 4.506 0 0 1 -4.5 4.5zm-59.899-63.758a2.516 2.516 0 0 0 -2.514 2.513v56.745a2.5 2.5 0 0 0 2.5 2.5h59.913a2.5 2.5 0 0 0 2.5-2.5v-56.757a2.5 2.5 0 0 0 -2.5-2.5h-6.636v4.333a1.87 1.87 0 0 1 -1.868 1.868h-4.437a1.871 1.871 0 0 1 -1.869-1.868v-4.334h-32.546v4.333a1.87 1.87 0 0 1 -1.868 1.868h-4.442a1.87 1.87 0 0 1 -1.869-1.868v-4.333z"/><path d="m70.457 23.13h-66.914a1 1 0 0 1 -1-1v-11.375a4.518 4.518 0 0 1 4.514-4.513h5.364a1 1 0 0 1 1 1v5.2h4.179v-5.2a1 1 0 0 1 1-1h34.546a1 1 0 0 1 1 1v5.2h4.174v-5.2a1 1 0 0 1 1-1h7.636a4.506 4.506 0 0 1 4.5 4.5v11.388a1 1 0 0 1 -.999 1zm-65.914-2h64.914v-10.387a2.5 2.5 0 0 0 -2.5-2.5h-6.637v4.333a1.87 1.87 0 0 1 -1.868 1.868h-4.437a1.871 1.871 0 0 1 -1.869-1.868v-4.334h-32.546v4.333a1.87 1.87 0 0 1 -1.868 1.868h-4.442a1.87 1.87 0 0 1 -1.869-1.868v-4.333h-4.364a2.516 2.516 0 0 0 -2.514 2.513z"/><path d="m17.727 14.443h-4.437a1.87 1.87 0 0 1 -1.869-1.868v-8.707a1.87 1.87 0 0 1 1.869-1.868h4.437a1.87 1.87 0 0 1 1.873 1.868v8.707a1.87 1.87 0 0 1 -1.873 1.868zm-4.306-2h4.179v-8.443h-4.179z"/><path d="m58.452 14.443h-4.437a1.871 1.871 0 0 1 -1.869-1.868v-8.707a1.871 1.871 0 0 1 1.869-1.868h4.437a1.87 1.87 0 0 1 1.868 1.868v8.707a1.87 1.87 0 0 1 -1.868 1.868zm-4.306-2h4.174v-8.443h-4.174z"/><path d="m21.79 51.057h-7.409a1 1 0 0 1 -1-1v-7.408a1 1 0 0 1 1-1h7.409a1 1 0 0 1 1 1v7.408a1 1 0 0 1 -1 1zm-6.409-2h5.409v-5.408h-5.409z"/><path d="m21.79 37.615h-7.409a1 1 0 0 1 -1-1v-7.408a1 1 0 0 1 1-1h7.409a1 1 0 0 1 1 1v7.408a1 1 0 0 1 -1 1zm-6.409-2h5.409v-5.408h-5.409z"/><path d="m21.79 64.511h-7.409a1 1 0 0 1 -1-1v-7.411a1 1 0 0 1 1-1h7.409a1 1 0 0 1 1 1v7.408a1 1 0 0 1 -1 1.003zm-6.409-2h5.409v-5.411h-5.409z"/><path d="m40.7 37.615h-7.4a1 1 0 0 1 -1-1v-7.408a1 1 0 0 1 1-1h7.4a1 1 0 0 1 1 1v7.408a1 1 0 0 1 -1 1zm-6.408-2h5.408v-5.408h-5.4z"/><path d="m40.7 51.057h-7.4a1 1 0 0 1 -1-1v-7.408a1 1 0 0 1 1-1h7.4a1 1 0 0 1 1 1v7.408a1 1 0 0 1 -1 1zm-6.408-2h5.408v-5.408h-5.4z"/><path d="m40.7 64.511h-7.4a1 1 0 0 1 -1-1v-7.411a1 1 0 0 1 1-1h7.4a1 1 0 0 1 1 1v7.408a1 1 0 0 1 -1 1.003zm-6.408-2h5.408v-5.411h-5.4z"/><path d="m59.619 37.615h-7.409a1 1 0 0 1 -1-1v-7.408a1 1 0 0 1 1-1h7.409a1 1 0 0 1 1 1v7.408a1 1 0 0 1 -1 1zm-6.409-2h5.409v-5.408h-5.409z"/><path d="m59.619 51.057h-7.409a1 1 0 0 1 -1-1v-7.408a1 1 0 0 1 1-1h7.409a1 1 0 0 1 1 1v7.408a1 1 0 0 1 -1 1zm-6.409-2h5.409v-5.408h-5.409z"/><path d="m59.619 64.511h-7.409a1 1 0 0 1 -1-1v-7.411a1 1 0 0 1 1-1h7.409a1 1 0 0 1 1 1v7.408a1 1 0 0 1 -1 1.003zm-6.409-2h5.409v-5.411h-5.409z"/></svg>