<?xml version="1.0" encoding="iso-8859-1"?>
<!-- Generator: Adobe Illustrator 19.0.0, SVG Export Plug-In . SVG Version: 6.00 Build 0)  -->
<svg version="1.1" id="Capa_1" xmlns="http://www.w3.org/2000/svg" xmlns:xlink="http://www.w3.org/1999/xlink" x="0px" y="0px"
	 viewBox="0 0 512 512" style="enable-background:new 0 0 512 512;" xml:space="preserve">
<g>
	<g>
		<path d="M504.5,0H7.5C3.357,0,0,3.358,0,7.5v497c0,4.142,3.357,7.5,7.5,7.5h497c4.143,0,7.5-3.358,7.5-7.5V7.5
			C512,3.358,508.643,0,504.5,0z M497,497H15V15h482V497z"/>
	</g>
</g>
<g>
	<g>
		<path d="M474.5,30h-437c-4.143,0-7.5,3.358-7.5,7.5v45c0,4.142,3.357,7.5,7.5,7.5s7.5-3.358,7.5-7.5V45h422v422H45V112.5
			c0-4.142-3.357-7.5-7.5-7.5s-7.5,3.358-7.5,7.5v362c0,4.142,3.357,7.5,7.5,7.5h437c4.143,0,7.5-3.358,7.5-7.5v-437
			C482,33.358,478.643,30,474.5,30z"/>
	</g>
</g>
<g>
	<g>
		<path d="M256,228.5h-15.482l12.964-60.5H305.5c15.163,0,27.5-12.336,27.5-27.5S320.663,113,305.5,113h-74.25
			c-12.882,0-24.19,9.143-26.89,21.738l-24.749,115.5c-1.749,8.16,0.257,16.561,5.503,23.052c5.247,6.489,13.042,10.21,21.386,10.21
			H256c12.131,0,22,9.869,22,22V322c0,12.131-9.869,22-22,22c-12.131,0-22-9.869-22-22c0-15.164-12.337-27.5-27.5-27.5
			c-15.163,0-27.5,12.336-27.5,27.5c0,42.458,34.542,77,77,77s77-34.542,77-77v-16.5C333,263.042,298.458,228.5,256,228.5z M318,322
			c0,34.187-27.813,62-62,62s-62-27.813-62-62c0-6.893,5.607-12.5,12.5-12.5S219,315.107,219,322c0,20.402,16.598,37,37,37
			c20.402,0,37-16.598,37-37v-16.5c0-20.402-16.598-37-37-37h-49.5c-3.793,0-7.336-1.692-9.721-4.641
			c-2.385-2.95-3.296-6.769-2.501-10.478l24.75-115.5c1.227-5.726,6.366-9.881,12.222-9.881h74.25c6.893,0,12.5,5.607,12.5,12.5
			s-5.607,12.5-12.5,12.5h-58.082c-3.536,0-6.593,2.471-7.334,5.929l-16.178,75.5c-0.475,2.214,0.077,4.525,1.502,6.287
			c1.424,1.761,3.567,2.785,5.832,2.785H256c34.187,0,62,27.813,62,62V322z"/>
	</g>
</g>
<g>
</g>
<g>
</g>
<g>
</g>
<g>
</g>
<g>
</g>
<g>
</g>
<g>
</g>
<g>
</g>
<g>
</g>
<g>
</g>
<g>
</g>
<g>
</g>
<g>
</g>
<g>
</g>
<g>
</g>
</svg>
