<svg xmlns="http://www.w3.org/2000/svg" width="16.133" height="22" viewBox="0 0 16.133 22"><defs><style>.a{fill:#3a3a3a;}</style></defs><g transform="translate(-64)"><g transform="translate(64)"><g transform="translate(0)"><path class="a" d="M72.067,0A8.067,8.067,0,0,0,64,8.067c0,4.335,7.466,13.416,7.784,13.8a.367.367,0,0,0,.565,0c.318-.384,7.784-9.466,7.784-13.8A8.067,8.067,0,0,0,72.067,0Zm0,21.051c-1.38-1.722-7.333-9.364-7.333-12.984a7.333,7.333,0,1,1,14.667,0C79.4,11.686,73.446,19.328,72.067,21.051Z" transform="translate(-64)"/><path class="a" d="M138.127,67.746l-4.767-3.667a.367.367,0,0,0-.447,0l-4.767,3.667a.367.367,0,0,0,.224.657h1.1v4.033a.367.367,0,0,0,.367.367h6.6a.367.367,0,0,0,.367-.367V68.4h1.1a.367.367,0,0,0,.224-.657ZM133.87,72.07H132.4v-2.2h1.467Zm2.567-4.4a.367.367,0,0,0-.367.367V72.07H134.6V69.5a.367.367,0,0,0-.367-.367h-2.2a.367.367,0,0,0-.367.367V72.07H130.2V68.037a.367.367,0,0,0-.367-.367h-.389l3.689-2.837,3.689,2.837Z" transform="translate(-125.07 -61.07)"/></g></g></g></svg>