<svg xmlns="http://www.w3.org/2000/svg" width="21" height="21.001" viewBox="0 0 21 21.001"><defs><style>.a{fill:#3a3a3a;}</style></defs><path class="a" d="M11.831,22.425a.442.442,0,0,1-.31-.128.437.437,0,0,1-.12-.395l.619-3.093a.429.429,0,0,1,.12-.224l6.806-6.806a1.315,1.315,0,0,1,1.856,0l1.237,1.237a1.313,1.313,0,0,1,0,1.856l-6.806,6.806a.435.435,0,0,1-.224.12l-3.093.619A.464.464,0,0,1,11.831,22.425Zm1.022-3.316-.464,2.32,2.32-.464,6.712-6.712a.438.438,0,0,0,0-.619L20.185,12.4a.438.438,0,0,0-.619,0Zm2.071,2.259h.009Z" transform="translate(-1.424 -1.424)"/><path class="a" d="M8.313,18.751H2.188A2.19,2.19,0,0,1,0,16.563V5.188A2.19,2.19,0,0,1,2.188,3h1.75a.438.438,0,0,1,0,.875H2.188A1.314,1.314,0,0,0,.875,5.188V16.563a1.314,1.314,0,0,0,1.313,1.313H8.313a.438.438,0,1,1,0,.875Z" transform="translate(0 -0.375)"/><path class="a" d="M15.938,10.875a.438.438,0,0,1-.438-.438V5.188a1.314,1.314,0,0,0-1.313-1.313h-1.75a.438.438,0,1,1,0-.875h1.75a2.19,2.19,0,0,1,2.188,2.188v5.25A.438.438,0,0,1,15.938,10.875Z" transform="translate(-1.499 -0.375)"/><path class="a" d="M10.563,5.25H5.313A1.314,1.314,0,0,1,4,3.938V2.188a.438.438,0,0,1,.438-.438H5.794a2.188,2.188,0,0,1,4.288,0h1.356a.438.438,0,0,1,.438.438v1.75A1.314,1.314,0,0,1,10.563,5.25ZM4.875,2.625V3.938a.439.439,0,0,0,.438.438h5.25A.439.439,0,0,0,11,3.938V2.625H9.688a.438.438,0,0,1-.438-.438,1.313,1.313,0,0,0-2.625,0,.438.438,0,0,1-.438.438Z" transform="translate(-0.5 0)"/><path class="a" d="M12.188,8.875H3.438a.438.438,0,0,1,0-.875h8.75a.438.438,0,0,1,0,.875Z" transform="translate(-0.375 -1)"/><path class="a" d="M12.188,11.875H3.438a.438.438,0,0,1,0-.875h8.75a.438.438,0,0,1,0,.875Z" transform="translate(-0.375 -1.374)"/><path class="a" d="M12.188,14.875H3.438a.438.438,0,0,1,0-.875h8.75a.438.438,0,1,1,0,.875Z" transform="translate(-0.375 -1.749)"/></svg>