<?xml version="1.0" encoding="iso-8859-1"?>
<!-- Generator: Adobe Illustrator 19.0.0, SVG Export Plug-In . SVG Version: 6.00 Build 0)  -->
<svg version="1.1" id="Capa_1" xmlns="http://www.w3.org/2000/svg" xmlns:xlink="http://www.w3.org/1999/xlink" x="0px" y="0px"
	 viewBox="0 0 480.015 480.015" style="enable-background:new 0 0 480.015 480.015;" xml:space="preserve">
<g>
	<g>
		<path d="M479.363,324.863l-24-56l-0.032,0.016c-0.04-0.096-0.048-0.208-0.096-0.304c-1.328-2.792-4.136-4.568-7.224-4.568h-28.248
			l2.392-2.872c2.496-3,2.472-7.368-0.08-10.328l-48-56l-0.008,0.008c-1.496-1.752-3.688-2.808-6.056-2.808h-104
			c-2.208,0-4.32,0.912-5.832,2.528l-65.128,69.472h-33.04c-2.208,0-4.32,0.912-5.832,2.528l-120,128
			c-0.04,0.04-0.056,0.096-0.096,0.136c-0.28,0.312-0.496,0.688-0.728,1.04c-0.192,0.296-0.416,0.576-0.568,0.896
			c-0.024,0.056-0.072,0.096-0.096,0.152l-32,72c-1.104,2.48-0.872,5.336,0.6,7.608c1.472,2.272,4.008,3.64,6.72,3.64h184h184
			c2.68,0,5.168-1.344,6.648-3.568l0.008,0.008l0.04-0.064c0-0.008,0.008-0.008,0.016-0.016c0-0.008,0-0.008,0.008-0.016
			l95.936-143.904C480.171,330.199,480.435,327.343,479.363,324.863z M431.203,280.007l-91,112h-27.112l93.336-112H431.203z
			 M368.179,212.487l37.352,43.584l-8.992,10.8l-0.008,0.008l-98.432,118.12l-24.784-55.752L368.179,212.487z M283.699,392.007
			h-59.688h-64h-35.688l18.96-42.664l5.92-13.336h109.608L283.699,392.007z M267.483,208.007h83.728l-91.008,112h-97.72
			L267.483,208.007z M163.483,280.007h14.56l-39.864,42.528c-0.04,0.04-0.056,0.088-0.088,0.128c-0.28,0.312-0.496,0.688-0.728,1.04
			c-0.192,0.296-0.416,0.576-0.568,0.896c-0.024,0.056-0.072,0.096-0.096,0.152l-29.888,67.256H58.483L163.483,280.007z
			 M20.323,464.007l24.88-56h66.808h42.808l24.88,56H20.323z M172.323,408.007h39.376l-19.688,44.296L172.323,408.007z
			 M204.323,464.007l24.88-56h66.808h42.808l24.88,56H204.323z M377.419,455.471l-24.104-54.232l92.56-113.92l17.072,39.848
			L377.419,455.471z"/>
	</g>
</g>
<g>
	<g>
		<path d="M72.011,32.007c-13.232,0-24-10.768-24-24c0-4.424-3.576-8-8-8s-8,3.576-8,8c0,13.232-10.768,24-24,24
			c-4.424,0-8,3.576-8,8s3.576,8,8,8c13.232,0,24,10.768,24,24c0,4.424,3.576,8,8,8s8-3.576,8-8c0-13.232,10.768-24,24-24
			c4.424,0,8-3.576,8-8S76.435,32.007,72.011,32.007z M40.011,48.031c-2.28-3.04-4.984-5.744-8.024-8.024
			c3.04-2.28,5.744-4.984,8.024-8.024c2.28,3.04,4.984,5.744,8.024,8.024C44.995,42.287,42.291,44.991,40.011,48.031z"/>
	</g>
</g>
<g>
	<g>
		<path d="M192.011,176.007c-13.232,0-24-10.768-24-24c0-4.424-3.576-8-8-8s-8,3.576-8,8c0,13.232-10.768,24-24,24
			c-4.424,0-8,3.576-8,8s3.576,8,8,8c13.232,0,24,10.768,24,24c0,4.424,3.576,8,8,8s8-3.576,8-8c0-13.232,10.768-24,24-24
			c4.424,0,8-3.576,8-8S196.435,176.007,192.011,176.007z M160.011,192.031c-2.28-3.04-4.984-5.744-8.024-8.024
			c3.04-2.28,5.744-4.984,8.024-8.024c2.28,3.04,4.984,5.744,8.024,8.024C164.995,186.287,162.291,188.991,160.011,192.031z"/>
	</g>
</g>
<g>
	<g>
		<rect x="200.011" y="8.007" width="16" height="16"/>
	</g>
</g>
<g>
	<g>
		<rect x="40.011" y="112.007" width="16" height="16"/>
	</g>
</g>
<g>
	<g>
		<path d="M472.011,64.007c-30.872,0-56-25.128-56-56c0-4.424-3.576-8-8-8s-8,3.576-8,8c0,30.872-25.128,56-56,56
			c-4.424,0-8,3.576-8,8s3.576,8,8,8c30.872,0,56,25.128,56,56c0,4.424,3.576,8,8,8s8-3.576,8-8c0-30.872,25.128-56,56-56
			c4.424,0,8-3.576,8-8S476.435,64.007,472.011,64.007z M408.011,103.039c-6.864-13.28-17.752-24.168-31.032-31.032
			c13.28-6.864,24.168-17.752,31.032-31.032c6.864,13.28,17.752,24.168,31.032,31.032
			C425.763,78.871,414.875,89.759,408.011,103.039z"/>
	</g>
</g>
<g>
	<g>
		<rect x="328.011" y="144.007" width="16" height="16"/>
	</g>
</g>
<g>
	<g>
		<rect x="464.011" y="200.007" width="16" height="16"/>
	</g>
</g>
<g>
	<g>
		<rect x="0.011" y="280.007" width="16" height="16"/>
	</g>
</g>
<g>
</g>
<g>
</g>
<g>
</g>
<g>
</g>
<g>
</g>
<g>
</g>
<g>
</g>
<g>
</g>
<g>
</g>
<g>
</g>
<g>
</g>
<g>
</g>
<g>
</g>
<g>
</g>
<g>
</g>
</svg>
