<svg height="512pt" viewBox="0 -94 512.00079 512" width="512pt" xmlns="http://www.w3.org/2000/svg"><path d="m466.121094 324.785156v-61.355468l-61.046875-34.6875-53.335938 30.304687c-2.464843 1.402344-5.050781 2.558594-7.707031 3.5v62.238281h19.933594v-43.542968c0-8.828126 7.160156-15.988282 15.988281-15.988282h50.246094c8.828125 0 15.988281 7.160156 15.988281 15.988282v43.542968zm0 0"/><path d="m395.945312 297.234375h18.265626v27.550781h-18.265626zm0 0"/><path d="m503.90625 211.160156-90.933594-51.488281c-4.898437-2.78125-10.898437-2.78125-15.796875 0l-53.144531 30.199219v36.777344l61.046875-34.683594 83.03125 47c2.496094 1.414062 5.207031 2.089844 7.886719 2.085937 5.5625 0 10.96875-2.90625 13.914062-8.089843 4.363282-7.679688 1.675782-17.4375-6.003906-21.800782zm0 0"/><path d="m141.675781 232.199219h73.453125v92.585937h-73.453125zm0 0"/><path d="m312.050781 324.785156v-177.691406l-133.648437-75.9375-133.648438 75.9375v177.691406h64.945313v-108.574218c0-8.832032 7.160156-15.992188 15.988281-15.992188h105.429688c8.832031 0 15.988281 7.160156 15.988281 15.992188v108.574218zm0 0"/><path d="m23.890625 121.886719 154.511719-87.507813 153.683594 86.441406c2.492187 1.417969 5.207031 2.089844 7.882812 2.089844 5.566406 0 10.972656-2.910156 13.917969-8.09375 4.363281-7.675781 1.675781-17.4375-6.003907-21.800781l-161.582031-90.929687c-4.898437-2.78125-10.902343-2.78125-15.796875 0l-162.410156 91.996093c-7.679688 4.363281-10.367188 14.125-6.003906 21.800781 4.363281 7.679688 14.125 10.367188 21.800781 6.003907zm0 0"/></svg>