<svg id="Capa_1" enable-background="new 0 0 512 512" height="512" viewBox="0 0 512 512" width="512" xmlns="http://www.w3.org/2000/svg"><g><path d="m449.01 108.48h-17.52v105.02c0 8.28-6.72 15-15 15s-15-6.72-15-15v-105.02h-17.53c-8.22 0-16.07 1.59-23.28 4.48 13.02 16.04 20.83 36.47 20.83 58.7v128.5c0 5.26-.91 10.31-2.58 15h118.07c8.28 0 15-6.72 15-15v-128.5c0-34.84-28.26-63.18-62.99-63.18z"/><ellipse cx="416.489" cy="60.697" rx="47.524" ry="47.659"/><path d="m356.518 484.685c.386 7.994 6.979 14.277 14.982 14.277h87.845c7.97 0 14.548-6.232 14.979-14.191l7.542-139.612h-132.077z"/><path d="m35.54 484.685c.386 7.994 6.979 14.277 14.982 14.277h87.845c7.97 0 14.548-6.232 14.979-14.191l7.542-139.612h-132.076z"/><path d="m130.49 300.16v-128.5c0-22.23 7.81-42.66 20.83-58.7-7.21-2.89-15.06-4.48-23.28-4.48h-17.53v105.02c0 8.28-6.72 15-15 15s-15-6.72-15-15v-105.02h-17.52c-34.73 0-62.99 28.34-62.99 63.18v128.5c0 8.28 6.72 15 15 15h118.07c-1.67-4.69-2.58-9.74-2.58-15z"/><ellipse cx="95.511" cy="60.697" rx="47.524" ry="47.659"/><path d="m196.028 484.685c.386 7.995 6.979 14.278 14.982 14.278h87.846c7.97 0 14.548-6.232 14.979-14.191l7.542-139.612h-132.076z"/><path d="m351.511 171.665c0-34.841-28.256-63.186-62.986-63.186h-17.525v105.021c0 8.284-6.716 15-15 15s-15-6.716-15-15v-105.021h-17.524c-34.73 0-62.986 28.345-62.986 63.186v128.495c0 8.284 6.716 15 15 15h161.021c8.284 0 15-6.716 15-15z"/><ellipse cx="257.066" cy="60.697" rx="47.524" ry="47.659"/></g></svg>