<?xml version="1.0" encoding="iso-8859-1"?>
<!-- Generator: Adobe Illustrator 19.0.0, SVG Export Plug-In . SVG Version: 6.00 Build 0)  -->
<svg version="1.1" id="Layer_1" xmlns="http://www.w3.org/2000/svg" xmlns:xlink="http://www.w3.org/1999/xlink" x="0px" y="0px"
	 viewBox="0 0 491.595 491.595" style="enable-background:new 0 0 491.595 491.595;" xml:space="preserve">
<g>
	<g>
		<path d="M189.785,1.565c-48.205,0-87.42,39.115-87.42,87.19c0,48.08,39.215,87.195,87.42,87.195
			c48.2,0,87.415-39.115,87.415-87.195C277.2,40.68,237.985,1.565,189.785,1.565z M189.785,155.47
			c-36.91,0-66.94-29.93-66.94-66.715c0-36.785,30.03-66.71,66.94-66.71c36.91,0,66.935,29.925,66.935,66.71
			C256.72,125.54,226.695,155.47,189.785,155.47z"/>
	</g>
</g>
<g>
	<g>
		<path d="M377.712,288.285c-6.362-44.97-38.609-82.918-82.802-96.13l-18.8-5.545l-86.67,86.42l-86.67-86.42l-18.84,5.555
			C33.73,207.175,0,252.385,0,304.655v106.51h245.76v40.96h157.22l68.06,37.905v-37.905h20.555v-163.84H377.712z M245.76,390.685
			H20.48v-86.03c0-43.15,27.855-80.47,69.28-92.86l7.15-2.105l92.53,92.26l92.53-92.26l7.11,2.095
			c35.529,10.624,61.664,40.642,67.849,76.5H245.76V390.685z M471.115,431.645H450.56v23.535l-42.26-23.535H266.24v-122.88h204.875
			V431.645z"/>
	</g>
</g>
<g>
	<g>
		<rect x="286.716" y="339.485" width="163.84" height="20.48"/>
	</g>
</g>
<g>
	<g>
		<rect x="317.437" y="380.445" width="102.4" height="20.48"/>
	</g>
</g>
<g>
</g>
<g>
</g>
<g>
</g>
<g>
</g>
<g>
</g>
<g>
</g>
<g>
</g>
<g>
</g>
<g>
</g>
<g>
</g>
<g>
</g>
<g>
</g>
<g>
</g>
<g>
</g>
<g>
</g>
</svg>
