<?xml version="1.0" encoding="iso-8859-1"?>
<!-- Generator: Adobe Illustrator 19.0.0, SVG Export Plug-In . SVG Version: 6.00 Build 0)  -->
<svg version="1.1" id="Capa_1" xmlns="http://www.w3.org/2000/svg" xmlns:xlink="http://www.w3.org/1999/xlink" x="0px" y="0px"
	 viewBox="0 0 512 512" style="enable-background:new 0 0 512 512;" xml:space="preserve">
<g>
	<g>
		<path d="M504.5,0H7.5C3.357,0,0,3.358,0,7.5v497c0,4.142,3.357,7.5,7.5,7.5h497c4.143,0,7.5-3.358,7.5-7.5V7.5
			C512,3.358,508.643,0,504.5,0z M497,497H15V15h482V497z"/>
	</g>
</g>
<g>
	<g>
		<path d="M474.5,30h-437c-4.143,0-7.5,3.358-7.5,7.5v45c0,4.142,3.357,7.5,7.5,7.5s7.5-3.358,7.5-7.5V45h422v422H45V112.5
			c0-4.142-3.357-7.5-7.5-7.5s-7.5,3.358-7.5,7.5v362c0,4.142,3.357,7.5,7.5,7.5h437c4.143,0,7.5-3.358,7.5-7.5v-437
			C482,33.358,478.643,30,474.5,30z"/>
	</g>
</g>
<g>
	<g>
		<path d="M270.653,221.703c-3.421-0.773-6.917,0.927-8.425,4.091l-30.824,64.731c-1.106,2.324-0.944,5.053,0.43,7.229
			c1.374,2.176,3.769,3.496,6.342,3.496H269c4.143,0,7.5-3.358,7.5-7.5v-64.731C276.5,225.513,274.072,222.476,270.653,221.703z
			 M261.5,286.25h-11.446l11.446-24.037V286.25z"/>
	</g>
</g>
<g>
	<g>
		<path d="M316.501,288.53V140.5c-0.001-12.941-8.817-23.972-21.439-26.824c-1.991-0.45-4.032-0.678-6.067-0.678
			c-10.543,0-20.286,6.154-24.823,15.679l-82.5,173.25c-4.081,8.57-3.491,18.479,1.576,26.504
			c5.067,8.026,13.761,12.818,23.253,12.818h55v30.25c0,15.164,12.337,27.5,27.5,27.5c15.163,0,27.5-12.336,27.5-27.5v-32.531
			c9.849-4.277,16.5-14.058,16.5-25.219C333.001,302.588,326.35,292.807,316.501,288.53z M307.696,326.059
			c-3.584,0.632-6.196,3.747-6.196,7.386V371.5c0,6.893-5.607,12.5-12.5,12.5s-12.5-5.607-12.5-12.5v-37.75
			c0-4.142-3.357-7.5-7.5-7.5h-62.5c-4.314,0-8.266-2.178-10.569-5.826c-2.304-3.648-2.571-8.153-0.717-12.048l82.5-173.25
			c2.063-4.331,6.49-7.128,11.28-7.128c0.924,0,1.853,0.104,2.761,0.309c5.737,1.296,9.745,6.311,9.745,12.193v153.555
			c0,3.639,2.612,6.753,6.196,7.386c5.971,1.054,10.304,6.23,10.304,12.309C318,319.829,313.667,325.005,307.696,326.059z"/>
	</g>
</g>
<g>
</g>
<g>
</g>
<g>
</g>
<g>
</g>
<g>
</g>
<g>
</g>
<g>
</g>
<g>
</g>
<g>
</g>
<g>
</g>
<g>
</g>
<g>
</g>
<g>
</g>
<g>
</g>
<g>
</g>
</svg>
