<svg xmlns="http://www.w3.org/2000/svg" width="22.324" height="23.427" viewBox="0 0 22.324 23.427"><defs><style>.a{fill:#3a3a3a;}</style></defs><g transform="translate(-12.06)"><g transform="translate(12.06)"><g transform="translate(0)"><path class="a" d="M183.017,136a.458.458,0,1,0,.323.134A.461.461,0,0,0,183.017,136Z" transform="translate(-174.76 -129.778)"/><path class="a" d="M310.017,136a.458.458,0,1,0,.323.134A.461.461,0,0,0,310.017,136Z" transform="translate(-295.951 -129.778)"/><path class="a" d="M222.146,146.667a1.628,1.628,0,0,0-1.626,1.626v.743a1.626,1.626,0,0,0,3.252,0v-.743A1.628,1.628,0,0,0,222.146,146.667Zm.711,2.369a.711.711,0,1,1-1.422,0v-.743a.711.711,0,0,1,1.422,0Z" transform="translate(-210.984 -139.958)"/><path class="a" d="M30.358,0a4.034,4.034,0,0,0-3.577,2.178,7.5,7.5,0,0,0-7.118,0,4.026,4.026,0,1,0-3.578,5.871c.077,0,.154,0,.231-.007a6.021,6.021,0,0,0,1.717,3.725,6.659,6.659,0,0,0-1.848,2.764.457.457,0,1,0,.863.3,5.75,5.75,0,0,1,1.669-2.451,7.294,7.294,0,0,0,4.5,1.523h3.225a.983.983,0,1,1,0,1.966H25.6a.457.457,0,1,0,0,.915h.06l-.418,1.494A2.7,2.7,0,0,0,22.7,16.459a.457.457,0,1,0,0,.915,1.78,1.78,0,0,1,1.778,1.778,1.759,1.759,0,0,1-.62,1.348H23.36a.457.457,0,1,0,0,.915h1.393a1.558,1.558,0,0,1,1.487,1.1H22.49a5.767,5.767,0,0,1-5.45-3.883.457.457,0,0,0-.865.3,6.682,6.682,0,0,0,6.315,4.5h4.327a1.181,1.181,0,0,0,1.133-.86l.988-3.529a2.761,2.761,0,0,0,1.7-1.3c.5-.936.4-2.181-.3-3.7v0l1.79-6.4A4.026,4.026,0,0,0,30.358,0ZM16.318,7.127c-.077.006-.155.009-.233.009a3.111,3.111,0,1,1,2.8-4.462,6.766,6.766,0,0,0-.8.693A2.1,2.1,0,1,0,16.5,6.089a5.776,5.776,0,0,0-.18,1.038Zm-.233-1.912a1.189,1.189,0,1,1,1.189-1.189A1.191,1.191,0,0,1,16.086,5.215Zm10.989,6.52a6.427,6.427,0,0,1-3.853,1.257c-3.313,0-6.008-2.422-6.008-5.4s2.7-5.4,6.008-5.4a6.042,6.042,0,0,1,5.661,3.59,1.171,1.171,0,0,0-.281.5ZM27.1,22.2a2.481,2.481,0,0,0-1.565-1.576l.872-3.116a1.987,1.987,0,0,0,.045.289,1.681,1.681,0,0,0,1.517,1.3Zm2.732-4.9a1.922,1.922,0,0,1-1.271.889h-.006c-.042.007-1.032.163-1.212-.6a1.108,1.108,0,0,1,.772-1.3,3.6,3.6,0,0,0,1.694-1.1A2.729,2.729,0,0,1,29.833,17.3Zm1.51-10.252-2.051,7.33v0a2.921,2.921,0,0,1-.977.851,1.892,1.892,0,0,0-.744-1.87l1.913-6.834a.262.262,0,0,1,.323-.181l1.356.38a.262.262,0,0,1,.181.323ZM29.169,4.026a1.189,1.189,0,1,1,1.189,1.189A1.191,1.191,0,0,1,29.169,4.026Zm3.016,2.519a1.175,1.175,0,0,0-.772-.7,2.1,2.1,0,1,0-3.052-2.48,6.72,6.72,0,0,0-.8-.694,3.111,3.111,0,1,1,4.627,3.874Z" transform="translate(-12.06)"/></g></g><g transform="translate(15.811 16.285)"><g transform="translate(0)"><path class="a" d="M94.517,356.914a.458.458,0,1,1,.323-.134A.461.461,0,0,1,94.517,356.914Z" transform="translate(-94.06 -355.999)"/></g></g></g></svg>