<svg id="Layer_1_1_" enable-background="new 0 0 64 64" height="512" viewBox="0 0 64 64" width="512" xmlns="http://www.w3.org/2000/svg"><path d="m62 41v-1c0-2.022-.764-4.326-3.824-5.395 1.71-1.277 2.824-3.311 2.824-5.605 0-3.86-3.14-7-7-7h-8c-.552 0-1 .448-1 1 0 3.86 3.14 7 7 7h6.899c-.465 2.279-2.484 4-4.899 4-2.452 0-4.526-1.752-4.931-4.166l-1.973.331c.309 1.84 1.312 3.4 2.713 4.445-3.047 1.072-3.809 3.372-3.809 5.39v1c0 .552.448 1 1 1h14c.552 0 1-.448 1-1z"/><path d="m9 30h6.899c-.465 2.279-2.484 4-4.899 4-2.452 0-4.526-1.752-4.931-4.166l-1.973.331c.309 1.84 1.312 3.4 2.713 4.445-3.047 1.072-3.809 3.372-3.809 5.39v1c0 .552.448 1 1 1h14c.552 0 1-.448 1-1v-1c0-2.022-.764-4.326-3.824-5.395 1.71-1.277 2.824-3.311 2.824-5.605 0-3.86-3.14-7-7-7h-8c-.552 0-1 .448-1 1 0 3.86 3.14 7 7 7z"/><path d="m40 20c0-2.022-.764-4.326-3.824-5.395 1.71-1.277 2.824-3.311 2.824-5.605 0-3.86-3.14-7-7-7h-8c-.552 0-1 .448-1 1 0 3.86 3.14 7 7 7h6.899c-.465 2.279-2.484 4-4.899 4-2.452 0-4.526-1.752-4.931-4.166l-1.973.331c.309 1.84 1.312 3.4 2.713 4.445-3.047 1.072-3.809 3.372-3.809 5.39v1c0 .552.448 1 1 1h14c.552 0 1-.448 1-1z"/><path d="m24 60v1c0 .552.448 1 1 1h14c.552 0 1-.448 1-1v-1c0-2.022-.764-4.326-3.824-5.395 1.71-1.277 2.824-3.311 2.824-5.605 0-3.86-3.14-7-7-7h-8c-.552 0-1 .448-1 1 0 3.86 3.14 7 7 7h6.899c-.465 2.279-2.484 4-4.899 4-2.452 0-4.526-1.752-4.931-4.166l-1.973.331c.309 1.84 1.312 3.4 2.713 4.445-3.047 1.072-3.809 3.372-3.809 5.39z"/><path d="m55 20v-11c0-.552-.448-1-1-1h-12v2h11v10z"/><path d="m11 10h11v-2h-12c-.552 0-1 .448-1 1v11h2z"/><path d="m9 44v11c0 .552.448 1 1 1h12v-2h-11v-10z"/><path d="m55 55v-11h-2v10h-11v2h12c.552 0 1-.448 1-1z"/></svg>