<svg xmlns="http://www.w3.org/2000/svg" width="21" height="21.833" viewBox="0 0 21 21.833"><defs><style>.a{fill:#464337;}</style></defs><g transform="translate(-0.625)"><g transform="translate(0.625)"><path class="a" d="M19.792.833h-.749a.635.635,0,0,0,.039-.192.641.641,0,1,0-1.283,0,.594.594,0,0,0,.039.192H15.386a.635.635,0,0,0,.039-.192.642.642,0,0,0-1.283,0,.594.594,0,0,0,.04.192H11.728a.635.635,0,0,0,.039-.192.641.641,0,1,0-1.281,0,.611.611,0,0,0,.039.192H8.07A.635.635,0,0,0,8.109.641a.641.641,0,1,0-1.282,0,.611.611,0,0,0,.039.192H4.412A.616.616,0,0,0,4.452.641a.641.641,0,1,0-1.282,0,.611.611,0,0,0,.039.192h-.75A1.835,1.835,0,0,0,.625,2.667V20a1.834,1.834,0,0,0,1.833,1.833H17.722l3.9-3.9V2.667A1.835,1.835,0,0,0,19.792.833Zm.833,16.682-.207.207h-1.57a1.336,1.336,0,0,0-1.333,1.333v1.57l-.207.207H2.458A.834.834,0,0,1,1.625,20V3.333h19Z" transform="translate(-0.625)"/><path class="a" d="M14.208,20.946h2.239v-9.44H14.875a2.182,2.182,0,0,1-.153.487,1.424,1.424,0,0,1-.353.48,1.9,1.9,0,0,1-.647.367,3.131,3.131,0,0,1-1.047.147H12.4V14.4h1.813Z" transform="translate(-4.548 -3.835)"/></g></g></svg>