<svg id="Capa_1" enable-background="new 0 0 512 512" height="512" viewBox="0 0 512 512" width="512" xmlns="http://www.w3.org/2000/svg"><g><path d="m68.857 309.857h98.857v30h-98.857z"/><path d="m497 275.429c-21.836 0-47.421-12.355-55.868-26.981l-4.331-7.497h-28.087v-240.951h-408.714v408.714h281.573c8.526 26.64 25.824 50.558 51.252 70.465 27.548 21.564 54.991 30.855 56.146 31.24l4.743 1.581 4.743-1.581c1.155-.385 28.599-9.676 56.146-31.24 37.549-29.396 57.397-67.529 57.397-110.276v-93.475h-15zm-329.34-245.429h73.394v92.26l-36.697-21.187-36.697 21.187zm-137.66 348.714v-348.714h107.66v144.221l66.697-38.507 66.697 38.507v-144.221h107.66v210.95h-28.086l-4.331 7.497c-8.447 14.626-34.032 26.981-55.868 26.981h-15v93.475c0 3.3.133 6.568.368 9.811zm452-9.811c0 33.399-15.212 62.375-45.214 86.121-17.281 13.678-34.886 21.765-43.079 25.116-18.981-7.751-88.278-40.883-88.278-111.237v-64.744c22.354-3.632 47.232-14.987 61.725-33.209h53.122c14.492 18.222 39.37 29.577 61.725 33.209v64.744z"/><path d="m357.517 340.194-21.213 21.213 47.466 47.466 67.355-67.355-21.213-21.213-46.142 46.142z"/><path d="m68.857 241h49.431v30h-49.431z"/></g></svg>