<?xml version="1.0"?>
<svg xmlns="http://www.w3.org/2000/svg" viewBox="0 0 64 64" width="512" height="512"><g id="Banker-2" data-name="Banker"><rect x="17" y="19" width="2" height="2"/><rect x="27" y="19" width="2" height="2"/><path d="M27,25H25a2,2,0,0,1-4,0H19a4,4,0,0,0,8,0Z"/><path d="M18,24a4,4,0,0,0,4-4,1,1,0,0,1,2,0,4.039,4.039,0,1,0,.8-2.381,2.941,2.941,0,0,0-3.61,0A3.994,3.994,0,1,0,18,24Zm10-6a2,2,0,1,1-2,2A2,2,0,0,1,28,18ZM18,18a2,2,0,1,1-2,2A2,2,0,0,1,18,18Z"/><path d="M60,28H40a2,2,0,0,0-2,2v9.559a11.324,11.324,0,0,0-1.721-.7L28,36.265V32.786A11,11,0,0,0,34,23V22a3,3,0,0,0,0-6V13a11,11,0,0,0-22,0v3a3,3,0,0,0,0,6v1a11,11,0,0,0,6,9.786v3.479L9.723,38.854A10.943,10.943,0,0,0,2,49.35V61a1,1,0,0,0,1,1H43a1,1,0,0,0,1-1V58H60a2,2,0,0,0,2-2V30A2,2,0,0,0,60,28Zm0,2v9H59V30ZM49.09,56H44.91A6.008,6.008,0,0,0,40,51.09V34.91A6.007,6.007,0,0,0,44.91,30h4.181A6.006,6.006,0,0,0,54,34.91V51.09A6.008,6.008,0,0,0,49.09,56ZM40,56V53.142A4,4,0,0,1,42.858,56ZM56,41h1v4H56Zm3,0h1v4H59ZM57,30v9H56V30Zm-3,2.858A3.993,3.993,0,0,1,51.143,30H54ZM42.858,30A4,4,0,0,1,40,32.858V30ZM28.313,38.458l.553,3.717-4.058.676,2.661-4.657ZM22.414,47l-1-1,1-1h1.172l1,1-1,1ZM35,19a1,1,0,0,1-1,1V18A1,1,0,0,1,35,19ZM23,4a9.01,9.01,0,0,1,9,9v1.739c-1.314-.633-2.43-2.44-2.824-4.785a1,1,0,0,0-1.334-.771,15.009,15.009,0,0,1-9.684,0,1,1,0,0,0-1.334.771C16.43,12.3,15.314,14.106,14,14.739V13A9.01,9.01,0,0,1,23,4ZM11,19a1,1,0,0,1,1-1v2A1,1,0,0,1,11,19Zm3,4V16.867c2.052-.513,3.784-2.573,4.553-5.457a17.281,17.281,0,0,0,8.894,0c.769,2.884,2.5,4.944,4.553,5.457V23a9,9,0,0,1-18,0Zm9,11a10.966,10.966,0,0,0,3-.426v3.161l-3,5.249-3-5.249V33.574A10.966,10.966,0,0,0,23,34Zm-4.469,4.194,2.661,4.657-4.058-.676.553-3.717ZM4,49.35a8.951,8.951,0,0,1,6.319-8.586l5.247-1.642-.555,3.731a1,1,0,0,0,.824,1.133l4.084.681-.626.626a1,1,0,0,0,0,1.414l1.622,1.622L19.02,57.8a.989.989,0,0,0,.031.512L19.612,60H11V48H9V60H4ZM21.721,60l-.688-2.064L22.82,49h.36l1.787,8.936L24.279,60ZM42,60H37V48H35V60H26.388l.561-1.684a.989.989,0,0,0,.031-.512l-1.895-9.475,1.622-1.622a1,1,0,0,0,0-1.414l-.626-.626,4.084-.681a1,1,0,0,0,.824-1.133l-.555-3.731,5.245,1.641A8.888,8.888,0,0,1,38,41.907V56a2,2,0,0,0,2,2h2Zm9.126-4A4.007,4.007,0,0,1,54,53.141V56ZM56,56V47h1v9Zm3,0V47h1v9Z"/><path d="M47,38a5,5,0,1,0,5,5A5.006,5.006,0,0,0,47,38Zm0,8a3,3,0,1,1,3-3A3,3,0,0,1,47,46Z"/></g></svg>
