<svg xmlns="http://www.w3.org/2000/svg" width="20.636" height="18.26" viewBox="0 0 20.636 18.26"><defs><style>.a{fill:#3a3a3a;}</style></defs><path class="a" d="M19.709,11.624H16.5l-.349-1.707a3.2,3.2,0,0,0-3.12-2.547H7.607a3.2,3.2,0,0,0-3.12,2.547l-.349,1.706H.927A.928.928,0,0,0,0,12.55V24.7a.928.928,0,0,0,.927.927H19.709a.928.928,0,0,0,.927-.927V12.55A.928.928,0,0,0,19.709,11.624ZM5.04,10.03a2.629,2.629,0,0,1,2.567-2.1h5.422a2.629,2.629,0,0,1,2.567,2.1l.326,1.594h-.74l-.3-1.449a1.9,1.9,0,0,0-1.856-1.515H7.607a1.9,1.9,0,0,0-1.856,1.515l-.3,1.449h-.74Zm9.565,1.594H6.031L6.3,10.288a1.335,1.335,0,0,1,1.3-1.064h5.422a1.335,1.335,0,0,1,1.3,1.064ZM.564,12.55a.363.363,0,0,1,.363-.363H19.709a.363.363,0,0,1,.363.363v3.112a2.623,2.623,0,0,1-2.62,2.62H3.184a2.623,2.623,0,0,1-2.62-2.62Zm13.754,6.3H15.81V20.49a.2.2,0,0,1-.2.2H14.52a.2.2,0,0,1-.2-.2Zm-9.492,0H6.318V20.49a.2.2,0,0,1-.2.2H5.028a.2.2,0,0,1-.2-.2ZM20.072,24.7a.363.363,0,0,1-.363.363H.927A.363.363,0,0,1,.564,24.7V17.467a3.182,3.182,0,0,0,2.62,1.378H4.262V20.49a.767.767,0,0,0,.766.766H6.116a.767.767,0,0,0,.766-.766V18.846h6.872V20.49a.767.767,0,0,0,.766.766h1.088a.767.767,0,0,0,.766-.766V18.846h1.078a3.182,3.182,0,0,0,2.62-1.378Z" transform="translate(0 -7.37)"/></svg>